<mxfile host="app.diagrams.net" agent="Mozilla/5.0 (Macintosh; Intel Mac OS X 10_15_7) AppleWebKit/605.1.15 (KHTML, like Gecko) Version/18.1.1 Safari/605.1.15" version="26.1.1">
  <diagram name="Page-1" id="1PLNStBUQvL_hTJ2lDGG">
    <mxGraphModel dx="1554" dy="941" grid="1" gridSize="10" guides="1" tooltips="1" connect="1" arrows="1" fold="1" page="1" pageScale="1" pageWidth="1150" pageHeight="450" math="0" shadow="0">
      <root>
        <mxCell id="0" />
        <mxCell id="1" parent="0" />
        <mxCell id="4_tMPqCt2Fl0vMyQaccZ-34" style="edgeStyle=orthogonalEdgeStyle;rounded=0;orthogonalLoop=1;jettySize=auto;html=1;exitX=1;exitY=0.5;exitDx=0;exitDy=0;entryX=0.5;entryY=0;entryDx=0;entryDy=0;" edge="1" parent="1" source="4_tMPqCt2Fl0vMyQaccZ-2" target="4_tMPqCt2Fl0vMyQaccZ-32">
          <mxGeometry relative="1" as="geometry" />
        </mxCell>
        <mxCell id="4_tMPqCt2Fl0vMyQaccZ-2" value="" style="rounded=1;whiteSpace=wrap;html=1;fillColor=none;" vertex="1" parent="1">
          <mxGeometry x="33" y="19" width="460" height="140" as="geometry" />
        </mxCell>
        <mxCell id="4_tMPqCt2Fl0vMyQaccZ-33" style="edgeStyle=orthogonalEdgeStyle;rounded=0;orthogonalLoop=1;jettySize=auto;html=1;exitX=1;exitY=0.5;exitDx=0;exitDy=0;entryX=0.5;entryY=1;entryDx=0;entryDy=0;" edge="1" parent="1" source="4_tMPqCt2Fl0vMyQaccZ-5" target="4_tMPqCt2Fl0vMyQaccZ-32">
          <mxGeometry relative="1" as="geometry" />
        </mxCell>
        <mxCell id="4_tMPqCt2Fl0vMyQaccZ-5" value="" style="rounded=1;whiteSpace=wrap;html=1;fillColor=none;" vertex="1" parent="1">
          <mxGeometry x="33" y="279" width="640" height="140" as="geometry" />
        </mxCell>
        <mxCell id="4_tMPqCt2Fl0vMyQaccZ-18" style="edgeStyle=orthogonalEdgeStyle;rounded=0;orthogonalLoop=1;jettySize=auto;html=1;entryX=0;entryY=0.5;entryDx=0;entryDy=0;" edge="1" parent="1" source="InsQ_l6GOQLopfFf3C0F-2" target="4_tMPqCt2Fl0vMyQaccZ-38">
          <mxGeometry relative="1" as="geometry">
            <mxPoint x="303" y="79" as="targetPoint" />
          </mxGeometry>
        </mxCell>
        <mxCell id="InsQ_l6GOQLopfFf3C0F-2" value="&lt;font style=&quot;font-size: 14px;&quot;&gt;Prompt files&lt;/font&gt;" style="image;aspect=fixed;html=1;points=[];align=center;fontSize=12;image=img/lib/azure2/general/Files.svg;perimeterSpacing=10;" parent="1" vertex="1">
          <mxGeometry x="73" y="49" width="54.86" height="60" as="geometry" />
        </mxCell>
        <mxCell id="InsQ_l6GOQLopfFf3C0F-17" value="Google Speech-toText" style="shape=image;verticalLabelPosition=bottom;labelBackgroundColor=default;verticalAlign=top;aspect=fixed;imageAspect=0;image=data:image/png,iVBORw0KGgoAAAANSUhEUgAAAGAAAABgCAYAAADimHc4AAAACXBIWXMAAAsTAAALEwEAmpwYAAAHVklEQVR4nO2cf4wU5RnHH+F2ZrGCYu+4meOAs9H+YVJjY1Jrbmav0NrEsIVWK2Iwh3/Ys0SpAjezHLVcbQjahFSsTe0PlZoaS48/7gqKDde6M3uI6G2Ed3Y1SsS21LYCoSmUViw9v80Me2flRJh3ZnZmjveTPP/d3jz7/b7v8z7zzNwRCQQCgUAgEAgEAoFAIBAIBAKBQCBwQQe1Ikc3QqceaLQJOg1Co13QidViNzTaAZ0e937G/dkOUrwPC/wDoknQaR40+gk02gedwBXuZzX6EXKku79TeHE24TVqgk73Q6c/cYt+ZjMOQKfV0Gi6MOJ04a+jGdDoIWh0PHThxxtxHBo9gM/RtPPeCLilRqNl0OnvkQs/Pg5BpztAdMF5aQTaaTY0eiEG4U/fEb/F52kmnU8gRwug05HYxf/AhMPI0Vw6H4BG34JOI7GLro+L/5TnX72UJjLQaV0ChMZHxTvzGofbusv/bi6wu2giAo3Wxi0yzhAH5zWW21YNv6uaDlSTva8U9i6jiQR0ujO5K79p+APxa2GwEdVwltBEABpd69bX5K9850OhGOzdmd3OVZRm3LtO6PTHtImvju0Ep6r2li+ktAKNfh2iaCPe0E2n70OnJcjRddDoKuTos2inG9BOndDpYWj02tnLTuP4snPGYI9SGoFOXw5J+EO1A3zWOV+7g9qg0QbodCyY+LXorrRTmsA1lAk0xdS9eA8arcf19AnuPDroEuj0g9H7Di7xvfPAGaI0AZ1uDyj+m9DomtDyaacvvHX9rOd4xB+N5oIzn1I0y389gPjD7lg67Lxm9DjNquGUeQ1QDLaXCMkf3EGj/DhR5xLQOQn49mTgoQZgUwZ4WgI2S8BTGeCxDLChAVgz+QA2y19CH02OIrfphfLFisn2cO8Co5L8eRF02uKJ3kFA1yTg0QzwexmwfYQlHYItPYFSNvTDr2VlZZZiOof5doHzK0p835+jE1gxGeiX/IlunzFehi2FWn9bDLaAcxccT/R9AXoa1nhlJRzhcVo8iyH5U2HlqhjOAJcJSRxRAHQBLOkeFOWRiMTHqdIkH0MpsziMnJVV1Su9mY9/A06qBvsu9SIZD/mxnWRY8pZIhbfHxbowcldN5znurshkm6mrnKE4QZGysKXBOouP2kH9iLvzguSvGuxWXgNqh/LWy5fvkykO3FYRltwfi/j2WNwf5DvMXu1M5ypDH46+WO4P3DIQs/iAJb9/8vmpgTok1XQqAQ1wb9Luo3qCkvxFWBEfuPbZY6Q0ZcfBasdFQb6Lajhbghrg7aLCXo3qeOi+Hrv41pTfBRXfRTHYI4EN8IK9emVvVaKogS31TISVP4pish+GY4B3KK+iKEGZLjw1Jkj/yo/CANVkf5vT+4csRQVs+ZuBBDx1bjyLorwMpWwHipmrYWdzsKV7YUk767nyR2nqriqqwXTVcLpUk20L3hWxb1BUwJZe5DdAGkIp87EPueGaYslv1Ev8j2JGgX1GMZ0S/4Hs2JEkhqHsbP6VL/0CZTqnu0bspmmwJDsO8cfoKmdU09nE2xG5uyr0nGBnl3Ku/EEUqcHXtXbSVNjyvljEH6W32KCYziDXYdy9tzP0fGBLP+Uw4ASKchvX9UrZjtjEr9Fc2NOmmOyEbwNMZ2PoyZxeFs6x9Pw80DWrN0ffV58FxWCPJeIcgC29zWHADZRymgvOfA4D9oeeiDeL92vAziktlHJmmqzVfwliR0JPBLb8X98GVCn2EhIUd9zMsQNOUtjAko/6NmAo/X+R2LjmNZWjFf1n6InAkg7474KyOUo5zUZlLkcX9JfQE4El7eZoQzdQylFMZ6NvAwz2QuiJwJZ+5r8Lko9gF11KKUXpeaVJNdlRDgOeCD0Zb4DGdyf8JKUUxWRPcd0Jm86doScDW76MzwDPhO9QylAMZy2P+G7MNF65IpKkYMmM2wRL+iUGp36SUlB2FM6VX2tBnciSgyWt5N8FMt4utry0+Jm7t3Zuv++2OwbXf7qvry+Sl3B90YtJbqvpdjunDlz/Nf//o9lgRmS51qaU/+AR/7DVVLlpYOHJfP9XEWaoAcSKII6rK8uNkRngmWDJ6/2Kf6jY5EQhfj5hBiim82Ck4nsGFOkiP4O5qFZ+PmkGGOydOffsuSRyAzwTStLX4175+YQZ0GJUbqmL+GMm2NKP41z5+QQZoJhOoOceQV7MLcW18vMJMcAdO7Su2DWl7gaMPUC35eE4Vn4+GQZUWldU4x21uCNn2NLz9V75+bgNMJyXIm85zxX3lZP9xTkb6y1+PiYD3JofW9n5OG7fsfbmhQNLDk5YAwz212bTWURJpmvwwYsXP3Pvkwv6F/1r4hjAjikGe+DS5fvS868ul29/eNpt2wrrbhzo/HNqDTAcRzEr3bEftEG5ddv3rujcvrqwaOvdO772m6X7Fw7ccvQr/Te9lxwD2DG3vLgtpWKyx90XdVtXVy+PWzeBQCAQCAQCgUAgEAgEAoFAIBAIBAKBQCAQUKr5H5iNAQ11uV5wAAAAAElFTkSuQmCC;spacingTop=-17;fontSize=14;" parent="1" vertex="1">
          <mxGeometry x="483" y="313.94" width="75.62" height="75.62" as="geometry" />
        </mxCell>
        <mxCell id="4_tMPqCt2Fl0vMyQaccZ-37" style="edgeStyle=orthogonalEdgeStyle;rounded=0;orthogonalLoop=1;jettySize=auto;html=1;entryX=0;entryY=0.5;entryDx=0;entryDy=0;" edge="1" parent="1" source="InsQ_l6GOQLopfFf3C0F-19" target="InsQ_l6GOQLopfFf3C0F-23">
          <mxGeometry relative="1" as="geometry" />
        </mxCell>
        <mxCell id="InsQ_l6GOQLopfFf3C0F-19" value="Inference API&#xa;(Together AI/Nebius/HuggingFace)" style="shape=image;verticalLabelPosition=bottom;labelBackgroundColor=default;verticalAlign=top;aspect=fixed;imageAspect=0;image=data:image/png,iVBORw0KGgoAAAANSUhEUgAAAKAAAACgCAYAAACLz2ctAAAACXBIWXMAAAsTAAALEwEAmpwYAAAV/0lEQVR4nO3dCXAcV4EG4AaSDYFAloRrgYVi2WKXAEXtbi0sC+wCBQkJJJDDCUnsOLakOXzEV5zY2ERgx7GSgtSy5PIG4lOyNJZ1H44l67Bs+dQ5OkeXLWnuQyPNdM/Z82+9kcaW5RlpJHVPT4/eX/VXyuXMqOX5qnu6+73XDENDQ0NDQ0NDQ0NDQ0NDQ0NDQ0NDQ0NDQ0NDI3kyz+PjL53n33zpPG/IvBgC6e9IL4Xwe9LLIeya6u6myb7cPNk94f/y7lda+OqsNnxT6t+FRobZeZ6v+O35EF66MNmFINzTQso7d2vx91L/PjQyys4L+DrBF+liEb7SjEypfycaGWXnOTyy89x1gItF+HILf1Tq34lGRtnRiGUEoGAIm3iN1L8TjcwA7micBCgIwib+mNS/E41E2VKD72yp4+u21vPW5+v5cy/U4adzvWb7WWwgAIVCuLuJr5vrZ/6xA3dltfF/zWrnR7Paed1rWuzYdxm3CvYPQZP4bKrBo1tqef/zdSE8Xx/CVtI6PvRCPZSxXpNZi1u2n+GbfnN2EqAQCHc18f69F/EPsX7myy34/N5Wvi+rLYSs9hBejVTLl/1Jh9tE+weiES+b67BsUw0f2FIbwhYCsO5GhC+ehnrmazY14q5tZ/i87WdDIACFRLj7Mt+xpxn3zPyZ5BINwbe3NYS9BCBFKP9srsETm07xgc21IZBGRVgfwgv1vGbrafyK9MUG/s1tp/mJbWdC2E4qAsJdTXzw5Wa+dHcTVuxuxk9eacbze1p46ysEX6QUobyz8RQe31jNBzbVhLCZdC6Epyf7YsNkt5GKiDDqdULSuRC285WZQ/iw1P++NLNkQxWe2FDNBzaeCmETKUVIk6g8V41fP1eFwIbqEAhAipAmYVlbhaeeq0LwuSpgQzUpRUiToKw/gdXrToJfXwUQgBQhTcKy7n2krX0f/LqTwHpSipAmUVlTiSfXViK09n1gHekSRfhaO3+cqktw1lfg4+pKjK05AawlXeIIs7R4hCJMYNaU4b/UlQABSBGGkNXG/y8FmMAoK3APAUgRhsJ7wqx2/DblAKJE/e8oUR1EqfoqStVAqcqGUnUFStc8BjAfkHbj8AFVBU5ShCHsbePdr2nxFSZVgszMD6JE/QcUq0MoUSNGT6JM/Qkpt1NZis8ry9G3lBG+0sr797bgYSaVgiLlH1CswpwtUjVin0LS8WrpFfjCUkW4p5X372lNsZMPFKr/E4WqEIrCwOKo8jQKlZq4WqTaj0KlUmi0ihP4Z1U5PIlAuKEqgIxiDs8cc+OpoxN44sg4nsyZwAqNC+lFLJ476UsYwj0teIFJtaBAlYtCFURug9AIVeUoUFVMAhQa4caqYBjcQ+/acd+bljn7wDtWPJ07gY1VfhER8oFXu/ExJtWCAqUFBSqI3kK1QsjtVlXgbQJQSIQbq3ksz3PjZ29Z44IXrY8fdmJLTUAEhPw4k2oheyUcVyIxVewXctuVZbgUASgEQlWZD7/4v/j2eHOVAE4rZAVHuKcV32BSLchXcMhXIgEVbJpiejG+riwHSIVAuLqQw8/eWjy8mX0qZ/zaIVkQhE38W0yqBRrFaRxTIgEVDGBGGY4pyiYBLhbhyuMeweHNPCQLhXBXEz+RdRlfZFIp0CjToFFA9OYpFg0wrRifSS/FuxllAAG4WIRpRT5R8UW6PM8l3ByTy/zgriY8lNmBO5hUCGozb0Ge4jzywkjmaIYDR9WzLrozy+vjBqjYh1tXFWHHqmJcXl2EgbRiDKSVQJ9eAqSXAhmki0SoruDxwDu2hAAkVZV7RLtEI/tVuaBZ81kczdAiV4HYzXAgV/m9Od8r9nvEDfDZQhxZVQSQri6ebFrJZIVC+Oih8YThI/35PhteqA+Ke7G6mR8j840ZOQaaNXcgR7EXR8leToFrzVH4kKM4iiOrvxTX+0x/7Y3vExfA5cX4x2cLgWenAIqBMK3Yn1B8ka485hb/joncV+VCxfrbkJ32bWQrluGI4kfQKO6c1+tzMhC96XEBXFmIX60kAEVE+MiBxO79Ir3/bStePM2LinDJr8qF7AxEb3wAVxRg2coCQCyEynJeEnyRKko5cW/bLfVVuUJHMhCt/OH4AT5DAIqEcLlG3Msuc/WJw05x7x0veYCHMxCt8wUoFsLHDk5ICpDcN97eIOIomiUP8FA6opU/NA+AxycBioHwoXcdkgIk3VwTEHMtmiV+CD6YjmjlD8QJ8BiWrSAARUL4QAKv/cXqukqfaOMJKcAD6ZhZ/vAa+HO3FA04cGdcAPMBsRDeJzE+UnW5V8RBrUtwDwjgAwMW71evOHxPOy5VwNx1CYYrgxgxj+Gqw3utw2O+yTq83mGHr3/Y4asecXjfHXZ41o2M+7+jA24jAJcTgCIhvC9JAIo3snqJAOww444Bm/exQbt3/5Dda75i9+KK43qnw7sJ4FRHptfpw+iY19th9Le+dSGI9WUhURDe/7b0h+C1lT4Rh/enOMABB/f9Qbv3vSG7xzVk9yJSQQBOK/lz/VAAr5/lw8CEQvhgEpyEbDwVFG+OycUUBBg+xFq9Dw5YvecH7V6QTscnBsBI9U4fdBYfDrYEoShePMJHpL4M87YVW+vEm+iUmWoABy3cfw/YPC2DNi/ClQBguOM+9Nt8eOdiEKsKF47wyTxpL0Q/dsgp6my7lAF41cp+rt/qyRuweSbhJQFAUsO4Dy36AH5XG1oQwtXF0t6KSyviRJ7ymQIA+23sIwNWj43gS0aAhnE/9ON+FHUHkVY0f4QPvyfdYIRNNbyo845fuiDjR4TpdLit38r9JQIvmQFG2qwPYHNlaF4InzkekAQgmXEn+uT389jOyDE6w8Sn+q2e+v4Z+JIdIOmg3Y/d9fND+PCBxA9I3VDNi7oCw87zvH7bBdzNyC3kInK/xTPcb/VAjgCNE36Mjvvxp3N83AhXFfF4IIHXBNOKPcIuA3KWd+5o5AdId57ju3ee4w/suCjDZxT32rxf67d49GF8MgZIapjwY9+l+BEu1/hEmY45s7/OcQm3Fs0Zvvk3jfhXJhUS3vNZPZZr+GQOMILwjQvxI3zyqLiXZR47OC7ggki8VZaH2Gjp0U98UmfldDfgSwGAYYTjfrzaED/Cp3K9ouB7/PDE1AR4oVbl4n/PpELI2W6fxXOhbya+FAFomvDj6pgf26riPzF5Jj+Anwu4NMeKY5zgS8Nta4j99E1ZRWfh3iD4UhkgaYc5EL59Fy/CtOIQlh1x4/5FLE5EJjwpy4KCr0+49TTvZFIhOjP7aARfqgM0TfhRqQvO+44JuVvyRDYb92JFZJDrssMupBcHRFwkkw+SR8syck6H03mXzuIxLyWAJpcfrzXwC753vLooiKfzvHj8iDs8n+Th/eN49NAEHj/iwtN5HFYXBRK3Ums9n8XIOToLt7/Pch3fUgHYZ/NDQb7niTjbLiEI53jye1Knx8x9r9fMhZYiQLPLD4128lCcCgi3NkDQxT4Tkl4zV6sj+JYoQL3Tj/XloZRA+Hw9H9jWgH9j5BKd2XMvwbeUAZpdfhR3B0WbbSfBnvAdRi7pNXM1FKA/jHVNKVIC4fN1/DFGLvd6yXc/CtAf3gsebOZFm/KZSIRb6rCGkUN0Fu7PEXxL/RBsdvnRaw1g5XHIHCHfkFmLW5hkD4AP9Vo8ZgrQfwPC39WIM+UzIQhr+Eby6FpGDumxen48HR/dA/rDAAs6gxBz8rt4CGWAr8vi/rtuk+ubBF+PxVNAAfpv2PuZpy5M7yaHsspQeE6JPBAmIb7hYdzeY3Hf323mXu8xszW9Js7Ra+bQayH1hEsB+m8CSGoJNwCLO4AeSxAn+4P4y2Uem0+EkhBhEuEj3+u6jeyDXWauuMfMsj1mDpGG8VGA8wZocQdgnVatKYjsNh7ry6VH+Fw1kgPfZT0+0m3ktnab2OFuE4fuafAoQGEBWt0B2NwBmF0BVPcHsb0qJAnC9SeTAF8tcEuXkV3baeQMYXiRUoCiA7SxkyV/PtEfxKbKBSM8ryzHOnUlfqKowHplOYbnRPh+EuDrMrq+0WXiLnaZOJBSgNIAtE3VNBHAoRYeq4rjQ5heCoOyFD+c+bmurcLdygpcngWhtPjIYkCdRm5rl4n1RfBRgNIDtE/1wkgQ6yrmRpheih/E+ozVZfhENIRrTkiMr9WIj3YaOU2X8To8CjC5ANrZAAYdAbxUG4o9vL8E/XN91svfx0dVFfijugJD6koMrKlE1iYNbmekStfo+N0dRu5yJ8FHASY1QDs7eZLy6pnoCFeX4Awjt6UxOg1sG8FHAcoDoIObfO3rjVEQFqOBkUu6rdaPdRrY1k4jG8ZHAcoHoIMj/38QrzTMQFiEOkYO0QAf0hrcxZP4KEA5AnRwQRgmgthWfR3hqmLIY8Boh4F9teMaPgpQrgAdXBA6azB83e/ZQnhXH8c3mGRPp577QYfBHaQAUwPgGBdE3ZWgcUUBvsske3Q228e1RvdVgi8ZAPaYWFwadKC204gTrSMobx5GZcsIqrR6nOuzoVPvXtCA1B6TG3VdRlQ0D6Os6WrUkp/1fusI6ruMaLk6hiG7Z0EAtaNOVGv14e0+3W3CkJVLOEBShzvwC0Yuh16pAfZZOJzrt84KJNK6LhN6zGzcAMl7V7SMzPm+M0u25dKgDSMOb9wACb6Z71PZMkIeipN4gGxgAMBtTLKm1ej5stbg9kgNsNvE4lSHfl44yIfaPjoRF8CLg/Z545vemk4Drto8cQEke75o79F8xZ5wgFPdyiRr2vXsgQ7DdXxSAOw1s6hqnx++a20eRofeNSfAMz3mRQEkPaXVY9jhmRNgeXP01zfqzJIAdHgCNj3wESbZ0mp0fbqd7P0kBki+Iy0GBtkT9lu4WQE2CACQ9KzOMifA2K81S7MH9BCEwbVMskWrZ3dpCT4JAWpHXYLAON9vSwhAUp3ZJT+AXKCPDCxhkiVkY9r17itSA6zvmn3vR86CyZnryTkO0eRkgUzbXAjAhl4zzkyVbM+JttlPVsj/JzeAY54gxln/fzDJkk4j+x2CT0qAOjM36xlvY58VA1bu2pzgthHnrGeybSPjCwI4c17w8JgXFwdssx7yR51e2QF0coH/YZIl7Qb2VakBdugnYn5YNZ3GqBPTm4YcsxyG7YIAjFyIJnveWK8ZsLByBDjIJEva9e4LUgNsHb75elmkl4bsUQGSvWbMD7jXIihAciE61mu6jS75AfSQv8MXpbbHDA3hw+0Gt1dqgM1XYgNsueqMuTRHrNec7jFTgNzsAJ1c8OnF+kHhyr9FvnIH8pVNyFd4UaDyo0DZhiLlLpQoPjmv738U4CyH4M4UOwR7SAOvLQqfRvF9aJQG5CuB41MtUAGFKqAoXDsKVffN+iZtetdTFODsJyEX+q2pdxLiCbdgwfhyld+CRunGMSVmAUjqRanqB7N9/9ue7ABPdRhQ32PC6ZtqFvwQfNNlmNbUvAzj9AQxYTU7+b+mafj96Rr+wLQeStfwhyeL7KnmkCo0yFVokEeaMQSNEnMCLFYDJep+XFbcGgvgm8kOcCFdKMClcCF6LALQYUPovTSE9qcjdCAdoYNTPZSO0OEMhI5kANlTzckAjiqAXAWQN9X4AQJl6keiAtQa2L9SgAvD1yjTW3FjUwDHx12JA1iqfiPGHpA9SAHOH191nIMRkhmgk/MnDmCJOvr3Ta2ePUwBzg8fuTAe73CsZAY47mITCFB1MNZ3wDcowPkMSLVjZCz+AalJDdBhT+AhWLkuOkCDO5MCjD0k/2TbKOq7J4fkX7HNf0h+MgOcMI8mCKCKQ8X6T8U6CVEnO8BkuBOy0ElJyQxwjAueYBYYaJRp8wAYexS21uj6IQW4VAEG/rRQgGGEecrd0ChDs1+IVv8ZYGKPPWy/6vxEu94donvApQfQ6Qku+pkeyFc+gHxF800AC1WdKFI+FtebaPXuoWQeDUPG/sU6BMcaQ0juUMQ6BJMPP9prKpuHBQcYa/vO9VkkB+jw+b61WIDXIGrSv4x8xYMoUP4SBelfndeL2w3su1ID7Day4S/90U4EyESlWADJfOFoH3DzlbGYAGMNrarrNgoOMNYcF+2oU1KAY56ADcAHmWRIu579ldQAyZD8CwM3T5ckk9Jne1JSt8EdHhBw43U6Q/jvYk5Mt3tQ22m4ce/XMgKdmRUc4KCVu2n76rqM4b+TGOBRJlnSYcYdWoOblRogmRVHhtKf1VnRqLOG5/nG86gu8t4XBmw402sJ7/ki+GZ9VJfdE94TkoGr5NoeeT+xHtVFJqE3D9lxvs8K7YgTxvHEL80xE6DDG/glk0zRGtj3kgHgUn1WnDmh0zIDdgB/wyRTIgNTKcAlAfB1JhmjNbgbKcDUBujgAl4bi88zyZgOo+vHFGBqA+S0Nddvu8285Tbzdtv0Ox35SgMKlG+gaPXHREWoNbDV9DtgagJ0jrsQzN2yMIDXLzKfnPXOxmLTNjr+T1rj9RWy6ElI6gD0nM2ZxLc4gECB+muMmOkwurdTgKm1B5wYHUDoYIYwAIsV0YfXC/kcOK3R3UD3gKkB0Dk+gaBmG0L70wQCqF7GiJ0Os/uzHUb3KD0Eyx1gAL6Tb0yN+5MRwDBCI/vtToPbRS9Eyxegu/lEW3jqZXj6Zdrs0y+nT73MzWiUHCCJ1uj6UafRzdI7ITIEyAb+uNDPHbmKZUkBkKTL5Pppp4F10Vtx8gFoZwN7FrMIZVIBJOkcdf9Lh5EbpfeCkxugze0POlh/9AlAcgZI0m1lP9dlZE/TwQjJCtBvsLoCNz2IOmUAhjcM+FCXkXtx+kOr6WgY6QHa3P4SowufFuxzTlaAkXQYvPd0mbgKClDaPaDVHRiysoGHhP58kx5gJN1m931dRvYMHQ+YWIBWt3/YxvrXDUOcJ5nLBmAkvUb2211G9ki3mXXTAaniALS4/LzN7a+2uoMrxB5QKjuAkQwP4/ZeE/twj4k90GNidXRE9OIAWtx+u8XtP251+dfaWHwhUZ+jbAHOjM4w8Smd2XNvr4lV9JjZl3vM3L4ei+dgr8Wjmd4+Uuv19sfRwem1T3YoWh3XezVKhx2+2HX6NKNRqo90fHr9N9Q4o6bpdd1Y84T/iNnle8fi8mVZXP5NFnfgfrPT8xWpZq6lDEAaeQYaxeaYAIsUm6XePpoUDnIVLyNXEYoJsFAVIqvgS72dNCkYZGco5xwNE150SEUWHUqXentpUijQKO7EUcVY3ACL1XZUKe6UertpUiTITlsV13jAa3tAsvCkaqXU202TIkF2xtsLAPim1NtNkyJBdnr2/AGqD0m93TQpEmSn/2EBABf1uC8ammvBkfRfzBtgmfrn19+BhmYRwT7FrcjJ6JnHWXA3ajNvWczPpKG5IchVfg9HFb45ARYpvShRfPfGV9PQCBDkKH6GvAzHLADtKFHfK8TPoqGJGuSkfQYa5V4cU3QhXxnE8XC7UKDcg+MqwUZe09DMGbIYkagLEtHQ0NDQ0NDQ0NDQ0NDQ0NDQ0NDQ0NAwAuf/AXFlsPJF0Q4tAAAAAElFTkSuQmCC;fontSize=14;perimeterSpacing=10;" parent="1" vertex="1">
          <mxGeometry x="840" y="161" width="85" height="85" as="geometry" />
        </mxCell>
        <mxCell id="InsQ_l6GOQLopfFf3C0F-23" value="Dream image!" style="shape=image;verticalLabelPosition=bottom;labelBackgroundColor=default;verticalAlign=top;aspect=fixed;imageAspect=0;image=data:image/png,iVBORw0KGgoAAAANSUhEUgAAAKAAAACgCAYAAACLz2ctAAAACXBIWXMAAAsTAAALEwEAmpwYAAANwElEQVR4nO2deVBV5xmHTzqZLM3S6Uwzqa2eBa4s57BdQERUEIKCoBEIooJLsSrEmLhhNEZFRSfGQAMSRQ24YERRETBxAcLVoM2iaZKmNtExiyYqTSKdLJO0/UPfzjl48cC5yuXuy++Zef/xKsz7+577nfN9Z5FhAAAAAAAAAAAAAAAAAAAAAAAAAAAAAAAAAAAAAAAAAAAAAAAAAAAAAAAAAAAAAAC9wHHcfQN8xGEsL85keXEtJ4hlnCBtQUlmZCCWyZmxgjSD9ZGGyllCODN4RBQf5DjxTxwvtbCC9B9OkAglWZ2BkiUvtfC8OE3OGDL2QKfTPcwJ0ipOEP8N4SR7f+k6WF4s9Pf3fwgiMgzDCmImJ0hXTIUl+AZRVHQCjRk7icZnTafsnHxUTu8ZyFnJmQ0anKBkaFpE8TLnI2V4rYQ6ne7em+cs3YLx0YVSesYUWlO0gfbVNtGhxjZUo+UZ7KttpqKiDZSWPlXJVnN45sVNoijew3jdIZeXWtVB8D5BlJ4xlbZtq4Nwjfb50u2sPkQ5k5/Uzoq89KbXHJL794++n+PFU+oA5ENFeXk1xGt0zGxfXr6L9BGxPSVsk8eG8XDuYgWpXt14SsoE2r+/BfI1OvZUo2b3YUp4bFxPCffLY8R4KpwgLuwmX+oEaqg/ftuQGhraqGxLDS1eWUz585fTtPwFqPwFNOOZxXTwrTPU+vFnJuvNv52j5vfO0pHW9+nQoZO3zbf+oEGZANRjMoCX5jKeSH9fUafe25NXt/IJsqlgave1UP6CZRSkj8E+oKBdwer89VTVdJxOtXf0Wie//obe/OA8vf7GX01mvX9fMw2JGaleHf/CssE+jKfB8eLrxib9AyNoW9VBk4GsLdlCUugQ5e+NGjeJlm/YSjWnztCx81+aFTiq4zYifkvHTn5kMvOqqjplTFQb1/WMJ8FxYhgnSDeMDT799PMmg5i7pEhZDQ+OTaaKxibI1G77L1TzmU9NZr9g4Sr1LHuDZQPCGU+BFaQdxubCwoZS3YFWTQDL1pYqn6dmTaPmC5cgX7v9ZvOmd85qzwfrT1DEoDjV/qC0jfGY67u89JOxsYJFRZrmt26vUzZJ45LTqfXLq5Cv3b6nEievXqPDLac141BQsFot4A/9+kX8mnF3WEEaY2zKd2Ao7d1zTNN4auZU5cS6/oOzkK/dMeexx89d0ozDnpqj3a+WcIGjGXeH5aUSY0OJo9I1TW+u3Kd89uTSIsjX7thF1JGWM5rxeGxkmnpFvJ5xd+TbgIwN5ec/q2n4qUUrlc/2v/cRBGx3rIAt75/TjMesWQWq1bDYxLg7rCBdNDZUWFii/calZlJUbBLka3d8nbjwtWY8lq8oVs+AXzDuDstLPxobKimp1DSsj4qjtJwZELDd8QK2XfqXZjyKi19V3ynzPePucIJ03diQfBG8Z8PySe/UOYsgYLvjBTx55ZpmPOQxUu0HXmfcHfUlpFc2vqZpWP7z3HnPQcB251TP8ZDHSD1mjLsDAS0T463L31JF4zGauWg5jcueQY+NzaKMqbNo7sp1VH38bQgIAe03K208eJhi4kd3PZYwOCqcRiVGUniE/tadRJlTlGvkmAExA9pUvoJ1pcr18PCIMNpamkRXz06k/12d3FXnT4+ntcsTyC8gmPzFcCqrbcAhGIdg28hX+EqlMrtNzIymb89P6iZez/r0nfEUOzxSubpUecyAc0CcA1on34HTfyefgSE0dkwU/Xgx+47yGevih1nKYTl88AgyXGzHIgSLEMsFnJQ3j3x1QcrMZo58xqqrTlVmzedLKyAgBLRMPsPFdvIL1FPe9KF9kk+u/16ZTDExEZSQkgEBIaBlAlYebVVmsT2vju6zgHItXRinLFxav7jS59+NfUBsRNP6nXsVAU8dSbNIwIqSUcq/P3C67zd0QEAISC9V1yoCnTxsmYCbim8KeOZjCIgrITgEuxS4FGfeIsRfDKdZuVYsQlIzsQiBgJZvw2TnzVe2YT55O7NPAh7Y2bkNs6x0MwSEgFZsRJ/5uHMjOiWKfvgyx+yNaH14GEVEx9PxS9iIhoBWXg1ZubHzUtyEzGj65tydL8XJM2XssAjlUpy5b0lQ1+GzF5RLeFgFYxVMajEWrStT9vTC9GG09eUkuvKPCd3EO/fueCpaFk8D/UMoQIygstpGi2TPW7xCeRIRAkJA6inHpoajNDQh5dZbYqP0yu1YspTGRZ38AP/et9+3eLaVbwKWfw4EtJOARz75nBo+/KdyY6etf7Yjqu3yd8rrSfKWFCrPzCQ+nkUZ0/JoftFLtOvEO1b/fAhop1vyy/Ydopj4zpWh8iKkoEHKM8eWnqR7auUtXkEDA3AItqmAy0q3KOdPA4Kj6LeTp9NvZs6m39+8szhxbBa1fPaV0wfeVerw2QvK4gWHYBsJaJSv34gk+lVlFTE1NZ21ezc9PPsZ4nyClOcqIGFHt9wgoA0ElDdhu+Tbvv2WfKp6aF4BJGzXZgcBrRTQHPkgYYfJQzD2Aa1chPRFPkjY0S077ANauQq2RD5I2NGVH7ZhrBDQGvkgYQcEtObVHLaQDxJ2YAa0REBbyuftEubiUlzfBLSHfN4sYS4ENF9Ae8rnahLuf+8jmjx7AYUNHkFSWAwlpWUrz4zY+vdMX7CUBN9g7AP2JqAj5HMVCTcfaiI/MVIRQ0pKptD0caQLHdSZ0dwl1HblO5v9rt1t79LKTVUQ8E4COlI+Z0tY0dhEugA9+YVHU9K2dZRh2KFU2pGtpJ+YqeQkv8jTlhLKhSshtxHQGfI5S8IKlXwpe1/ukq+rWrdTRG6OIuGUOQU2lRACmhDQmfI5WsKK3uSzk4TyfZJHz30OAXsK6AryOUrCCnPls4OETxe+QEFhMRBQLaAryWdvCfssn8G2EmIbpsc2jCvKZy8JLZbPYDsJIaBKwJGPT3BZ+WwtodXyGWwjIQRUCejq8nVJOGe+VRLaTD6D9RJCQJWAA4IGubx81kpoc/kM1kkIAVUC/jEqzuli2fNwbDf5DJZLCAHdWMC+SGh3+QyWSQgB3VxAcyR0mHyGvksIAT1AwDtJ6HD5DH2TEAJ6iICmJHSafAbzJYSAHiSgWsIhCSmkCwhznnwG8ySEgB4moFpC3i+Ekne+6Dz5DL1LCAE9UEC1hGLiSBp3ZIvLSpiLW/I9U0B3kTAXAnqugO4gYe68JXhBpScL6OoSRsclQ0BPF9AVJUxv3U7hUyZ0vcATt+R7uICuKuHA8GgI6A0zoKtKGBATCwG9SUBXkzAAAnr2KtjVJQyAgN4poKtIGAABvVdAV5AwAAJ6t4DOljDAiwS8bmymvHyXpmH5z/8QOdzpMjj7GRPRwRL6DR5mUkB5jFQCXmfcHZaXfjQ2VFJSqWlYfhNU/6Aop4vgbTOhb4j8Fq4QzXgUF7/aJSDLi98z7g4rSBeNDRUWlmga9pciifMNcboE3jYT8rpgCpAGacZj+Ypi1QwofsG4OxwvNhsbystfpGl4ZMp45bP7C4ucLoG3zIQJf3leyXxUapZmPGbNKrg1AwriMcbdYXmp2NhQ4sh0TcOr15Yrn/Ubmuh0AbxlJhTj4pXM16zbqBmPhMQ09Qy4nnF3WEEaY2zIRxdKe/Yc1TQdpI9RPr93zTqnC+DpEiZuXKVkHWzizVg1NUeU88IuATkxmXF3Hn005AGOl34yNlWwqEjT+Jr1FZ1Tvl8Y/WprpdMF8FQJxzZsIsEvVMn6heLNmnFYuHCVagEi/dC/f/T9jCfACtJ2Y2MRkSOovv6EpvmJ02Z3vqZDjKS7N25yugCeJmHK3lLykSKUjHNyn9Lk31B/nPQRseoVcBXjKfC8FMoJ0o2uWbBgtSYAuVLSsjsD8A1R/q9fZwvgKRIOmT+TeN9gJduU9Ekms18wf6V6/++GIASFMJ4EJ0iNXf+LeWAEVVXVmQxixlPPKm/LUmZDfz39LvUJemDpCrp7wytOl8FdJEzZ8zIlvPgchWWkkU9g2M03kAVT3pwlJjOvrDxA/oGR6tmvjvE0eD6Q4wTxZ2OTUdEJVLu3yWQgO6tfp4TkJ7pEREkWZ8D7BlFCcgZV73rDZNb79zVT9JCR6pXvLywbIjCeCMdJ89ThjE6dQAfrDCaDkauxwUBLVqyn9InTKX5UBg2JTba6oocnkRQSTWLwYLcsfWRcrz3KWcmZPbeyWMnwdvnK2SenZHUTlhXEOYwHcxfHiwfUDccnPE41uw/fNiRUm10y2P3aGzQifmyPGVOsZTwdeWnP8dJJdeNh4cOpvLwasjU65gtXvmEnheqH9Zj5pLc4jruP8Qb8/f0f4nippdu5ik8wZefk084dDRCx0T7i7dheT5Oy85Ssu818vNgsjwnjTYiieA/Li5t6njTLV0vGpU2moqINt12koNrMzmDvnmO0enWZkqmcrWahwkvl8lgw3grHBaVzgnjZ1ApO8A2iQVEJlDpmImWOz1VmSFR+rxnIWcmZRUbFKxmaypblxa94PnCcs8ffJXhEFB9keXEFJ0jXsOUi2Xvb6RrLS8vkS6TOHneXQw5lAC9NlW8DkvejIKNkI+nEn1lBOsry0hSIZyY6ne5e1leKYQXpzywvruEEsZQTpC0oyYwMxFI5Mzk7jgsaImdp36kDAAAAAAAAAAAAAAAAAAAAAAAAAAAAAAAAAAAAAAAAAAAAAAAAAAAAAAAAAAAAAMYD+D/fwg5DWzfscAAAAABJRU5ErkJggg==;fontSize=14;" parent="1" vertex="1">
          <mxGeometry x="1033" y="159" width="90" height="90" as="geometry" />
        </mxCell>
        <mxCell id="4_tMPqCt2Fl0vMyQaccZ-3" value="" style="shape=image;verticalLabelPosition=bottom;labelBackgroundColor=default;verticalAlign=top;aspect=fixed;imageAspect=0;image=data:image/png,iVBORw0KGgoAAAANSUhEUgAAAGAAAABgCAYAAADimHc4AAAACXBIWXMAAAsTAAALEwEAmpwYAAAIXElEQVR4nO1dfawdRRX/7VzEL8QPIBrFzyYKikQsIE3UKClRjA0qbYSI4Q+1ymv3zL42jxK13qamETAqGDQBooBGTEWUagNREohRo2nqFyRFq1QpBKy2wHttLWDrz8zcLe3ru3dn7t3d2d3e/SUnee9m7z1nzpk583XOWaBFixYtWrRo0aJFixYtagSuwIlMsJCCCWp8nRo/o8bvKXiQGv+ixl4K/kPBv9PP/kjBRgq+Qo2LeRleWnUbGgVO4vlMsIiCr6XKPEANjkwx3lt1mxoBCuZTcC01duZS+JG0DCdU3bbagpfiedS4LHUdLJwEj1TdxlqCS/ECClZS8Ggpij9Ed1Xd1toh9e9/L1nxTOlLVbe3NqDG66jx00CKp6UEH8uWSW2jqAcp0d3U0fXUahV1Z4mdjyZwHI4WUOND1Hg8qPI1yEm8NVMuie6kVsygx6nVZuroB5ToSopayqSzkAnewCXooO5gjOdScF0Bk+kOCm6jxhoKLmKCt3M5Xm/W+FyK51gyf5vPNN5BwSXUWMsujs2UT0frHAbIomdmj55ozSwDAVE4Tfdr3DKcQI3f5FD8JgommeAtZTWGSWdxDgNkk6gZavUnilpdhuzZDRO8hoItIyh9moKrqXFqEDljzCvNAD3axEm8LERbDjVqOU6hxsNDuphdFKwOfWxgRhZFPVnSCPgFp/CikO0xPepkajw0hPL/R43vMMZJQQU9XGajqMINEN1ljlTC+/zh3M5WaiwIKmQ/uXV0TbE9P9podvjhjxQEvx3C5dwafHgOAEVdWmDPX29WZAgNanzDU/HmZFNQI1Bw+ojKTtsVHfz/e+zimPANSLDYU/lPmzU8agZ2cQy12jea8g9S9Ct2oao5XhA86aX8GO9HTUG72x1V+ZaeYow3VyC4x9lOz+18FDUGJbrRT/mZbf1l0N1ver7jM+nWyuf3A0VN5FR+jxJ8EiHAlXghNf7hs9pBA0CNBSO6niNpJ2McH0LgKa91fk2Wml4XRFrtL2QUaHwBAa4RH/Pw+5VvsoYBtXoge4OlDlBHV6W796y2P0GNl5QnaC88xOV6bkTDQIluzTDAfrNh6z2HGzxGwefKEbILRY1tDuXvamIkArWaGtDzn6Z0LjzimH3aYYCHSrmwYYJzPXp/+PPvAmAvUuYa4CnGnQvmPGsuhtwrokVFyDWbseAmB+Pppkai0fbsWcrfS+mc1/fZGMc7N6CCn5QRSjLjYHo1GgyK2p66nT1MOudmP2uDyLI6475CL/Y9N15BbrLKAiXaQFFPMMY5zmc13uSxIrqwQOGcFt+EhoOiljPGGf7PO4/gby5QONznYJZgzEDBFQ6dbCuGUYyTPIbbaRgzUONUj1Xhy4tg9D4Hkx2Vx8FUgN6lPnZk6ibGBfkZxYgdBrgNYwoKNpS+K/aIbluDMQVNOE125/xWEUzudhjgYowpaNKgsnVzTxFM7ndYeT7GFDSxqNkG2JqfiSuefwKvxZiCJgwz2wCPFcFkVyaT0PGPNYJpu8M7zORnYqIaspg4wsCPZrCLYx0jYH9+JhrPZDKpIhqsTjkQ2QbYnZ+J6+i1oUfQhSWSZ7ugR/MzETySyWQFXo0xBXtZOVkG+Et+JoI/O5ichTEFBWeVfkrs3IjVMOYzFNJ8tCwDrM/PRON6B5PPY0xBkwyYrZu1RTBZ5RgBP8aYgho/cujmkmKy27OZjOdxdBfKlskp+5jG60Km4ffBo4Aab3Mof6awpA0K/upgdgXGDHTFyAo2FsnsZscI2Oz9WzHOYKKWoeGg4A8OA6wMm4q0HKd4CD2fWu00ISBoMCg4LW+tiuFzAkxttmyLX+cQ+p3UajoNftqOBoO9mnRZBri/eKYadziY7uYqvHjAd99DrXbPCv9bgRPRQKQBursdnfHy4hlrfMQ57PpsPKg75/fNREw6C3E0br5MfkSMk8tJ6RRsdzDfwwm84tnvJJ1FNsq4f9z9FBoGE+fjkRl6R5kCfNY5CtJIAIq6iKL+OzjrJGpEDtnhoOAWj8n37HLPv11R0mbTZipMufOuHkCDQI13e2xIf16+IIKux1zgzrs1eVcTzajNZvK+nNlBhhK8q3xhJnAcNf7pNsDBOgqZmYcL0ABQcLtHp/t+OIE0Pu03ChxGEDWBmsMsKT3mvRkuwytDB6bem98NRbXOqGSMj3v4fWOAySqEm2erl4+q/B5tRk1BwQedESE95d9bSRlLOwp0dM9ovv+wTMSl9QtrSXu+j/J3BHU9zwq4BB3q6Ntz6ygMpXz23BBOR02QutbLPd3OAQrOq0r5351bR2EE5Ws7Edss9FosNf1WOxX6fROKJ9HtIyl6IEXXBG9I/02We51/iK6qqBRxtKGMGpuo9mznFi+Xc6jn3xT8Drx3H2DqJBesfG1pOnSD0iPltV4l12Yr/5vBVzzmjJ9a/bok5dNSjHkBb7K+6jzP76/8bggZ+witVlPUfXMuVIqkpLO4xAovJnphynmHO5j2UfAJ1AG2TLy91+0ssS88kOhaW1+/V3lwb46JeJ1HrYov2vV5jHNsiXiTHGEWBYbM3+azBGeaFzfYZ03QlCtux01bh8mer5+BTG19M3fYWvum6tSgiTi6M/N3J3F2TkUOT6bCb4gacKFgy53Z6uqd83uVCqMvU0c/pKjfUdSWzO9qfCqg8v9GwQfCaaYBoLtYSBE9fo+96whdfLsJoNfJ68iKn7EGPuwuu8URKPwNez3Fb7HnPgNCaVqk4CReVaDiH7a9PcGZB3+/Rd5qLYNpv51QNdbbG7wVeKOLV4us5a0J6hV8mAJtiyUJrrSvuO1N0OtsIongMzaAzLx9aYzzl1u0aNGiRYsWLVq0aIFa4//WPR7PvIP0xQAAAABJRU5ErkJggg==;imageBackground=default;" vertex="1" parent="1">
          <mxGeometry x="453" y="119" width="55" height="55" as="geometry" />
        </mxCell>
        <mxCell id="4_tMPqCt2Fl0vMyQaccZ-13" value="" style="shape=image;verticalLabelPosition=bottom;labelBackgroundColor=default;verticalAlign=top;aspect=fixed;imageAspect=0;image=data:image/png,iVBORw0KGgoAAAANSUhEUgAAAKAAAACgCAYAAACLz2ctAAAACXBIWXMAAAsTAAALEwEAmpwYAAAbHUlEQVR4nO1dCXRT15l+6SRN2s7WaXvaTqdzOqeZmU47nXNaiSU0GdXvyQvYejI2BoNjMKvZd7Dfk2153xc2CwwhLGEPS8CSgUBKwiLZxMasCRCWhBLCFjBblEwS/jn/fXpCNjZ4kX3fk953znfiGEt69/6f7vL///0vw2jQoEGDBg0aNGjQoEGRqImIeL7WaOx7iONGOVk2x8Wya10cd8jJsuddHHfZxXG3XBz3tYe3nBz3VxfHnXOx7EEXy67B1+Br8T1OxsV9l3Z7NKhAcK6QkAFOjpvnZFmXi2W/dHEc+IUs+yV5T46rcLFsf/ws2u3VoADsMxhecLFsvIvjNrk47m5L4TRGR8PpESPg4oQJ8OmsWXAzPR2acnPhbkEB3C8qgi/KywnxZ/wd/hv+Df4tvgZfi+/RiijxszbhZ2tiDEK4jMZ/d3JcqZNlb/oK4+jAgUQ41y0WuF9SAu6KCr8Q3wvfE98bP8P3M50cd8PJcSVOg+FF2v2ioZvhNBp/7+K4bU6Oe+gruktTp8Kd/Hy/Ce5pxM/Cz/QVIz6Tk2W3HAoN/W9NCAEGHF1cHLfOybLforFrw8LgbFISfG619pjo2uLnGRlwJikJakNDJSHiM7LsmoMhIb+m3W8auoh9BsOzLpad5mTZ+0R4RiOcHTmSrNdoC68l7xUVwfnkZK8QXRzndnFcpraDVimcLNvbxbLH5SnuzIgRihRea9Mzbl58puZjdUajnnZ/augAajlunJNlv0IDHuF5uC6K1IXl7iBvpKdDI8/LQvzaxbIpmggUjqOhoT/AtZ48epwbMwYelJZSF5O7k8Rnxzb4+BPXYhtp97OGVnDg5Zd/6GJZJxqqLiwMPpszh7qA3H7i1ZQUqAsPJzt3J8fV74+I+IkmAgXBybK/cHLcKTRQQ1QU3M7NpS4at5+JbcK2eUR4CttMu9+VhmeEKN1vLHyvBIHXZ4hm/UqR1+8XeP05way7LJr1t0Re943A678Sed1Nwaw7LfK6apHXF4m8LnJW6P/8oAviu0h8etHRqthouDtJbJscWXGy7IWDRuM/M8GMFHOfXwlm3SxJSLqbolkPnSUKUzDrtqaadQOsVuY77fn82oiIv3dy3FE0yLFBg0hIjLZI3N3M+8XFcDQmRl4TNh7s1+/vmGCCNUr341SzfrZo1h1uKSJrTB8oGvYKzEsKgcoxRlg2PhxWTo6EVVOi4I2pUbB2Bg9rp5vgjWlRsGLSAFgyLoz8be6QfiBG+7wXrzsh8LpBT3qOep3uORfL7pJ3uuhHoy0Od0+JsKgIGs1meTr+S1D4CtNMvX4nmnVLRV73hSyU9IG9oTjhFVg8LoyIbN0MvtN8Y2okLBzJgnVQH18h7k01/aHVGKmLZYvRAO/370+SAGiLwt3DvJOXB+8PGCCLsJAJVFjM+l8KZt0a0ax/iKKwmPVQOPRlqEoOI6NZV0TXGtfOMJHRMyOmtzQ1m3V3RJPO7PtMTo4zYsgKIxuYfUJbDG5KxLZjH5C+CAlhmUDClIgXnxd4fbZg1j8gwovuBeXD/wwrp0T6XXStcc20KChKeEUeDR8KZn0urg3rOO5HLpb9FL/5H0+cSF0EbsrEDBuPn/CyMyzsn5hAgMD3/q3A6xol4/eCwoRXYFUPCa8lcTS0mHuR0Vcw61cdYlkbdvjxuDiSi0dbAG7KxD44PmiQvClZwKgdolk/UTDrvkSDZ8W9BMsn9qciPF++NiEC0gb2ephv6oPrHTL13srOpm58t0J4OzubTMUYsqsLCfkdo0bg9CaadfPkUa98uAHWdMMar9MinNgftkcYyDf9o1GjqBvdrTBin3hGwWpGbbAaDC+IZt0WFF/awF7EPUJbcC25eYIUBagLDw8Kf5+7g0Q3FPYN9pGqklqtBsOzgln/FvHjxfZRxJTbGt+OkzoXg/O0je1WKD8aPVqOklQxKsEzglm3XHYi99QOt6PcONUEzlCyxglKn5+7nbydkwMuyS3zQBU7YpHX5aH4Mgb2hhWTlTnyIatH9CfiOzV0KHUjuxXOk/Hx0jTMcaMYJSPV1CtC4PXfon8PF/i0RfYkvjNQmn4vz5hB3cBuhfOv06fLfsFtjFIhRvb9hZw8sGg0R11gT+L6aSZwGqWEzHuFhdQN7FZBxow8DddHRX2fUSIw6wTFh4kDtAX2NG4bGykdn4yJoW5ct0ooH/d0Go0GRmkQo/X9SSJBTG+SlUJbYE+j/VVp/af5/iraLUA8+edJUpjCKAnWuN9+FxNEUYAY4qItrvZwzyBp/YdrG9oji1slvDRtmuyOWcooCam8fiSKL2fwSyQ3b50KuM8knZMN5qwXdydO1Hk2IocYJYXaBF7/AQpwSbLyIh1tcf8ASYCa/6+iQ+dHPAI8zSgFmFMnJRj0Vc3ohzwU5tkBa+E3aK8A0VvgWQNeZZQCOdymlrWfTJfHBfOgrIz61OZWCbGv5LqEjBKQGvn7H4pm/ZfodFbDzlcTYEXXBFhaKk/BXzBKgMD3GoujX+Gwl6kLqqM8GC7FgLUpuKIzU/BnjJIcz4vHhlIXVEepbUIqOpeUIE3BHzIKwDOCWX8DBbhqqjKzXZ7EdzU3DHRUgDfS0pTjhpGOU+ohM7YPdTF1JQ9Qc0RXtFuAWH1VMXmBsvO5JEH5cd/WaB8unX3VQnEVHQ/FsexkJaz/8lGA85NCqIupo0R/5bKhIVoyQkXnkhEOhYT8rxL8f5vUuAHBUh758f0gndfDASNLUowCufCQ28/pWC6Ou4fXUChBgA0owOUTI6iLqr1cNiGcrFnxufOG/Qnqx0rFeLSE1Ip2J6RixX1GCRB53UU0pFLPezSbcqfxpPoCHgslybITQ+Gzd9PgctVkLSW/on0j4MkhQ2QXTBKjBIi8/joac7XCIyBYSQvj1PLR0JqyV+FufQ48OJIHdw9mQV2ElpTgbk8SgpQNfR8rxjJKgFzNSkmHzH25cvIAUuxIrohVOsoAZ3fMIsLz5VnLcO1YZkU7D6dz3GJGKcCqpGjYtdPpi82XqyZHQtlwAyl6RI6FxvWF3fMSoelw9mPiQ97aZSHf7sPh4VpYruJx8WGoEi/gwRuXFFWeQzTr76OBlZKEsGxCBIlJY5k3uerWBmssXH0vrVXh+fLUVOnIoeYTrGjT9+fiuB2MkiCvAWmG4XCanZ/EQnbcS96plmTmCGY475jzVOF5R8G3LVAXHkoK8WjFiSq84ruVlSXVCeS4/zsYEvKfjJKA5W7R4FgSt7MCwvUj+uVwJ43EDQ3+P1JeW3r/ZvIAqBofDgtHcaS+H5b78C3jmxPfD7YXxsNf94jtFp4vz2UlkW86liTTyrNVkD44FhsrZ7/MY5QGgdfvQsNjRdOOlEMrTTRAzuB+3jVaV4iiW58RA43rJsOdw9LOtrO8eygL6mOlo5pYnJG249dNmRfGj5f9fpf2GQz/yCgNAq+rRBEsGMW2Y30W3myalJkZ1xcKE1+BkhEGwvyElyE7vh+hXNM5I7YPERruYpfO6A9bcgbD/qWj4eNdKXC/IbdLomvJa5vnkCkn2Ev03vAp0avIM8AI0awbQ9wbiYYnis82JhQsnkr1BYkvw67yRDi9fSbccmX6VTz+4oVC6Qqrw0FapLwpN9dbpNzFsvmMUiFG6f4oH8V80sgn70p3FA+FO224QpREHFVPThoMwXhNw73CQmgwmeR1Xw1eS8sovNj4V5Y2ndEmbwTCXpJAXVgd4b3abDg2Usr8OBobGxSFK+8XFfnetN6wz2D4W0bpEM26IygwHOlaCrAqOZyID9d2Xd0g0OCdA5lwJF4aDfDylkDOmLmbn++9oMbFcefqDIafMWqAwOtKUGQVIx7PCcS1If6bo1Rdo18zEb5nhcZXJcOQywpzcqiLxd0NhcjlywpdLHuiPjz854xaYDHr/tzWOhBdLfhvuOGgLaSuumeOj5H8YYcjIuBWZiZ10bj9xCtz5pAraD0jX50qqp/6Ytw43XMCr7+N68CWV2phlSwU4JV9Fuoi6vpImCEdZDcaA2Jn/KC01DfBAEe+Naq9sFrgdRuIP3Bkc3+g7GhuqlP+zvdp/GS+5JTFnDja4nF3kddE0bvTxQoHLqNxAqNmWHhdnFwbxleAsrOZtni6zIZc72YEbxinLSB3Fy4h/DAx0XfUO3KI4/7AqB2VKYZXLTG9vm2Znh8oAry2fiYxWH1kJHyhwjoydwsKyBUUtaGh3rIaLo7LDIirWG0il24TjZA/8k/QMioSKAI8NXWIKuPDN9PT4fSIEY+Ex7LfuFh2pctg+BUTCLCJxr42gft2sSUUqufFS/f8xvQm5y8CRYC335FiomhENfgB7+TlkcPjPg5lKZ7LshsOhYX9hgkk2ATjKhz9dlclwIXds6FiLAu+1fEDQYDn86SdIq6daIvL3QrvFReTTcWF5GQ4Gh39aH0njXjXnCxbEDAjXkvYRO4jFOCJbVOIAPfaRkgZLrF9SJq+2gV473AOvM9HEGNiTRR/+t5OxMXB6eHDScrT5Zkzyfujk/tOfj4JieFaE/Px8GccedH1gxkqn86cSZYCpxMToZHHGodShS+f0a4JRzun0Ti4JiLieSaQUSlwD1CA53fNIgI8t2s2FCZKh4DwsLraBfjpa1O8YTh3V+8PLi+Hq3PnQmPLUarrdLtY9qCTZctqQ0LCAmJj0V5UisYmFOBZxwwiQKS9dKiUKOpJQlCzAOVkhC4VLyovJ66bFmuyS06WHe/kuOG4G3Vy3GoUEZY8c3Hcxy6Ou4Up8HhHL/lZ+vszRGj4txyXhWdzD3Fcr3qd7jkmWGETjWd8p2DkRzUzScUB36RT2kLqDK9vm0vEgnlxnSnh+6C0lFRbaCY8jrvh4riZiihrEQiwicZtKMCDq0d7BYh0lA9TvQBPTZFcLx9PmtThXej55GSSzOojvKs40tUbjf9A22YBhUqBm4IC3D5/cDMBnt85C0pGGlQrwM9rxEfnhIuLnz7alZXB1dRUcuNmi13oCSfLjgn4zQAtLEoNe7FSND5cmh4GH9U8WgciDy4frVoBfjgnQaqUMG7cE0V3TRDgTFISyZBxyaOdkYOawRzsjDUOpW2foIBN5PbiKPjeiqRmAkTi75G0BdUR4vng2lAj1LXieMbzwrgh+SAhwTeFSVorJpjgQMogWDoH28ztpm2XoMFiMXQgimx5Vn+yAVG7AD+cNYwI6sTgwWQTgaPgqfj4ZqOcZ10H9QkmOGF9Fc6un0JmgNcyI0h7K8VQE227BA2AYZ6pFLmD2PG7liSoWoA3d6Q85tj1ZUNcFJyemwAbxhph2Rxjs7butA3ziM+4H/uEtl2CCrbUMF2lyH2zWDRC3fpxqhXgqclDSOTjyBATHB8dA6dTE+HjsnFwZfV0kpov/53cLrmdtevGAbYd+8CWEgDpTWqETeTmoFGWZoRDw6bxqhRge+krwPqN4wE3YTYUYKpxNm07BDUqRW41GmKJJZRsSgJdgO+uSIIlaaHS/wvGVbT7P+hhtVq/YxON5bKBbBbpv/c81UgDgffqc5u1TVr3caXY9qAXgFJgE9h4m8Bdkg3UVJdFXTj+4u3aLB/hGT+ptHBDaPe3hlZgtRqerRS5a2ioqweeXiBSLfxsf5o86l3FNmrGVzBsgvGAlK41m7pw/EVMOZNGQO5d2v2roZ2bksbNE6kLx19seHOiPP2u1ASgcCwSuBlorD3LhlMXjr+4e2miPAJOpd2/Gp6CxULon9BYawp46sLxF9fkm+RNSF9NAApH1Tjdc3LWNC7eaYunq7zynkWefpuwbbT7V0M7YBO4TWi09zeMpy6grhLDjB6n8wbN+CqBzRIah0ZbV2imLqAusSGXLCU8679Y2v2qoZ3YZI37rk3krhN3zO7239uhNOKze6bfq9r0qzJUilweGu+tBYOpC6mz3DYvTh79smj3p4YOospq+LFNMN5T6yjoM/rdXWZVWQFHDRIqRWMOGnF9cbTf7/boTt5ryIV1RWZJgAKXqdlTpSib0fd7lSJ3EQ2JCZy0hdVeOteM9SYeVFmjvk+7HzV0AZWiMRJP0WE1rUvvpFIX19P4yd4Uku+Hz7wolYvQjB8AqBSNNhxRVuYMgBuHMqiLrC3edGbAqpxIOeqxgHa/afATVlgNL9hErhYN+2ZpDNxRYK4gXmy9sWSgPPU68Zk1AQQQqsTwn+OaCg28tWJQmzeZ0yB+ITaXx8o5fxeXCexPafeXhm6qqiCnteNo87nTqohpVx75bJZQqLKE/FozfgDDe3ZENMLqvCiy6Kclvo/3psCq3Cjv8yBp94+GboZs6LUFkp8Nd5x165OJ762nhIcHpurWjfOebsOYtSbAIIFs6HM7Z4Gjcqj3pNmG4mg4//bcbhffhd1zYH1RtPeUW03lUFLtVRNgkKBlhYHD65OJe0b+/fYFQ/wfumvIJe+JcWn5c1ZkR8L7G5Ifq+hAu3809LAASYXVnTNhz9JEWJYR7hXC2kIzmSa7ktSKr8UIDL6X/L74GXuXJrZZVEkTQBAKUOYZxwwixNez+jfbGOCoeLsDvkM8x4uv8X2P17MGwJ5lieQzWvtsTYBBgicJ0FttddcsMnJhFVa5Bguey2jPGhGn2jfypDMc+Fp8j7p1Y71V/duiJsAgQXsE6MsPdkzzyUo2khy9xs2T4LP3LMSZjcSfG7dMIg7uR7tsnry2vZ+jCTBI0FEBkrtIds4k6zbfNWJbJGu8ZYnkNR35DE2AQYLOCNB3jXhg1SjYUh4Lq3IjyRRblR5Gfsbf7V81qs01nibAIITBuu+FKHHHH3mhOp4X7Bkm0b62KwLsTsrPZRLsa0yiI91scQzBZ8c20O5HDe2Ewbrv2ehUu84k2lNMgmMPL9jdvOgAX1aKUvThbAs3CE3irU9SIkJos2clFOxfm0RHPS84CnmL3Rg3Y9P3NEEoCHFxm/4mKrUmzCTYV5kE+z1f45ktDojP3Qejymth0uJjMHvFWSgvmEmM/c5rw6kLTyauGfGZygtnkmfEZ8VnxmfHNvi2ySQ67vKiY6VJcIRi22n3f9Bi4NyafzEJjmKTYL/ia6Bh+e/ChMpGSF1zAQp23ICSnU3NWL7B6d0sdHa95k/iM8ibm7KNrseeN7/6BqSsuQATFh2BoXn7WorxU160F0WK1b+gbY+gQbSl5tcmwTHfd3qNy94Lk2zHIGvLlccM2BoXlkix1xpbPHUBVi+UHNYLS+e069lztl2FqctOwpCcvzwSouD4ihcdq6PT7P9F2z4Bi6iUHf9qEuwbTILjW6nja8g0lb7xUrsM58vSrafBlhZBqszXe4qb0yDGoTEHEJ+lbOupDrcjfeMl0gfYFx4hfssLjnVmy65f0rZXwCBiSs3zvGi38ILjAXZytKUGxi88QkaCjhrMl/OqXpOSArIGwGn79B4XHzqpl2dKIb95S1/vUluyt16F5IUNEJ0mCZEX7fdNokPAvqNtP1WDF+whvGj/SJ5q8Nue3UXhPeJtWFA6VwqzFfA9uivGG47eyJcSUReWppBn8UebcrZdhVFlLp8dtOOs2VL9Z9p2VKU7xSQ4cuXpdmjuPkhb/4mfhOczFVdfhkXZQ4kQNpfFdDh60VnxYe4hcbtkD4PS6k/93i5x/ScQnyutEU2i4xtesGdjn9K2qyqA6xdesB8g32CLA8YvaoQixy2/G0lm2dYPoTJTiuGuK+ThdPX0bp121+ZLceVKawyUbT3Zbe0qdtyGyUtOPFofio5ak2X7v9G2r6IRlbrjJZPouEl2tll7IW2D/0e9VkW45QRUZkm70ZU5kdC4ZaLfxdewaYI3zWtRdny3iq+kxWg4KGuPvDa8zqfa+9C2syLBp1bz8kYjseggFFTf7BEDySx96zwszE8mAsEqCjsXD/OLnxA3OPZF8WTHTcRXMAFK37rYo20r2HEDEgsPyOvCB2axRrtZ0xdmwZ5M1iqiA8bOfx+Ka7pvyn2iCGtuwnzbQrBZpBxAdBDvqhoGJ9+a2mHhndg2BWpsQ6Eq3ZNBYwmHeYsrocTRs1+sEg9xGYN9K68LTaJ9HLXRRknAjuBF+0PsmClVJ6gYpyXLNh+DRcVSfFY+PIRrt51LEsC5Zgwc2zqZjGx4sAmJPx/bOon8G14fK+9wZS4sngllm+m3rbimCaZUHZen44dm0TGGCWbwYvVAeeSbUtUza6KOsPzNBlgwPwds6d4q9e1mZQYPC+blQNmmI9TbUdKC05Z94HVcmwT7YCYYgZkdvGj/UkkjX5t03IDyde/CvCVVsLBMgEU5I8jOuTJtgMTMQeR3C8tEmL+kivwtTufUn3tn25R2yFIYL0p09GeCCVHCjt/ImSsTFx+jboxg5URbo5zydSc61fEfTDAgdNbuH/CC/SQ2fGSZy29RAI1NneiD25D0KHJyIsq6I/CLYWLeHjYYszkKqz/XhEP5y1No/5zkHUq7Y/taJpBhEu1J2NCB6bseZm/9TBOfQkburC1XYGD6TiLCqFR7IhOIiE7d+iNecNzARs58/TT1TtfY1KwPZiz37IxFx80IoeYnTKABEyaxgcOLDhJ/lCYApfXBbUgskqIlJsG+nAkkmCwOFh2f0Wk7H+Zuu6aAztZY0kZeIdqIOKmF6leYwAA8Q051EX/fcc34Chf/pMWeSIngaEDbMWqHSbSbsUGx1rfJjot2B2tsemIfoI1irbulU4WpNQMYtYMX7YexMbjI1Yyvji/A9Ne8G5JaRs3AEA/J7cvcQy3DRWNTpzJnBmW+LY2CYnU4o1aYBIddFbFejdBmrFh0bGfUCJOw/adYVgJP9ue9dV0zsspEnrf9ulSVQbB/PWC2/WeM2sCL9jn4DRpdcZh6Z2ps6lQfSGeOiQhnMGoDBrfx4cW1PZt+rrHJb32A5U08iQpHGbWVzyCHyNN3duuJNo1N3doHaDs5RmxO2fkrRl1p9tJBck0k6v6ijPSka5kE+2hGLeBFx0Z86Nkrz1LvQI1NXeoDtKFnN7yeUQfgGXL+VHSAFvcNjPgwL42A11QRmsPUbnzgGOvb1DtPY1OX+wAzl2IypNCcKXXXi4wqDpiLDhhR4tQEECBfghHFB+WjnJGMWvx/k5Zoh40ChZNsx+QTdLMYpQOTGckGZIW2AQkUzlpxRj4zspRROkyC4z3NAR1YFDwOaZPg2McoHSbBfhwfNnOz/+veaaTTB9Y3L8sCbKStr6fCJNov4sNiMFsTTGB8afK2X5dDcucZpUOu76cxEPvAfp1ROjxXBiigszTy/hfgl7T1pUGDBg0aNGjQoIEJevw/dxRXOsY2+sQAAAAASUVORK5CYII=;imageBackground=default;" vertex="1" parent="1">
          <mxGeometry x="623" y="372.5" width="61.87" height="61.87" as="geometry" />
        </mxCell>
        <mxCell id="4_tMPqCt2Fl0vMyQaccZ-22" style="edgeStyle=orthogonalEdgeStyle;rounded=0;orthogonalLoop=1;jettySize=auto;html=1;exitX=1;exitY=0.5;exitDx=0;exitDy=0;" edge="1" parent="1" source="InsQ_l6GOQLopfFf3C0F-20" target="InsQ_l6GOQLopfFf3C0F-17">
          <mxGeometry relative="1" as="geometry" />
        </mxCell>
        <mxCell id="4_tMPqCt2Fl0vMyQaccZ-23" value="" style="group;perimeterSpacing=10;" vertex="1" connectable="0" parent="1">
          <mxGeometry x="203" y="330" width="192.15999999999997" height="42.5" as="geometry" />
        </mxCell>
        <mxCell id="InsQ_l6GOQLopfFf3C0F-20" value="On-device wake-phrase detection     " style="shape=image;verticalLabelPosition=bottom;labelBackgroundColor=default;verticalAlign=top;aspect=fixed;imageAspect=0;image=data:image/png,iVBORw0KGgoAAAANSUhEUgAAASwAAABKCAYAAAABp2mGAAAKt2lDQ1BJQ0MgUHJvZmlsZQAASImVlwdUU+kSgP97b3qhBSKd0JsgRSCAlBBaAAXpYCMkAQIhxJCgYkNkcQXXgogIqCu6KqJgo4gNsWBbBOx1QRYBdV0s2EB5FziE3X3nvXfenPNnvjOZf2b+Ofe/Zy4AVAZXIhHBKgCki2XS8AAfRmxcPAM/ACCAABJwAWQuL1PCCgsLAahM6r/Lx3uoNyq3bcZi/fv//1VU+YJMHgBQGMqJ/ExeOson0TXCk0hlACBHUbvxEplkjO+grC5FC0S5f4yTJ3hkjBPHGaMy7hMZzkbZBAAChcuVJgNAsUPtjCxeMhqHMpbLTswXilHOQdkzPT2Dj3IzyhaojwTlsfjMxL/ESf5bzERFTC43WcETZxkXgq8wUyLiLvs/2/G/JV0kn8xhji5KijQwHNWaaM9+T8sIVrA4cU7oJAv54/7jnCIPjJpkXiY7fpIzRRGcSeZzfYMVcURzQiY5Seiv8BHKOJGTLMj0i5hkaUa4Im+SlM2aZK50qgZ5WpTCniLgKOJnp0TGTHKWMHqOora0iOApH7bCLpWHK84iEAf4TOX1V/QhPfMvZxdyFHtlKZGBij5wp+oXiFlTMTNjFbXxBb5+Uz5RCn+JzEeRSyIKU/gLRAEKe2ZWhGKvDH04p/aGKXqYyg0Km2QQAgIAA0QBEZABKeACfyAEYiCQCZbKxg7DzpAskwqTU2QMFnrjBAyOmGc7neFg5+AEwNj9nXg83tPH7yVEvz5lW1sFgMep0dHR01O2oHYAjiUAQKqbslksAEClD4CrZ3hyadaEDTP2g0XfCspAHWgBfWAMLIANcADOwB14Az8QBEJBJIgDCwEPpIB0tPIlYAVYA/JBIdgMtoEysBvsBQfBEXAcNIAz4AK4Am6AdnAXPAZdoBe8AoPgIxiGIAgPUSEapAUZQKaQNeQAMSFPyA8KgcKhOCgBSobEkBxaAa2FCqEiqAzaA1VBx6BT0AXoGtQBPYS6oQHoHfQVRmAKrA7rwWbwDJgJs+BgOBJeACfDi+FsOA/eCJfClfBhuB6+AN+A78Jd8Ct4CAEIGaEjhogNwkTYSCgSjyQhUmQVUoCUIJVIDdKEtCK3kS7kNfIFg8PQMAyMDcYdE4iJwvAwizGrMBswZZiDmHrMJcxtTDdmEPMdS8XqYq2xblgONhabjF2CzceWYPdj67CXsXexvdiPOByOjjPHueACcXG4VNxy3AbcTlwtrhnXgevBDeHxeC28Nd4DH4rn4mX4fPwO/GH8eXwnvhf/mUAmGBAcCP6EeIKYkEsoIRwinCN0EvoIw0QVoinRjRhK5BOXETcR9xGbiLeIvcRhkirJnORBiiSlktaQSkk1pMukJ6T3ZDLZiOxKnksWknPIpeSj5KvkbvIXihrFisKmzKfIKRspByjNlIeU91Qq1YzqTY2nyqgbqVXUi9Rn1M9KNCVbJY4SX2m1UrlSvVKn0htlorKpMkt5oXK2conyCeVbyq9ViCpmKmwVrsoqlXKVUyr3VYZUaar2qqGq6aobVA+pXlPtV8Orman5qfHV8tT2ql1U66EhNGMam8ajraXto12m9arj1M3VOeqp6oXqR9Tb1Ac11DRmakRrLNUo1zir0UVH6GZ0Dl1E30Q/Tr9H/zpNbxprmmDa+mk10zqnfdLU0fTWFGgWaNZq3tX8qsXQ8tNK09qi1aD1VBujbaU9V3uJ9i7ty9qvddR13HV4OgU6x3Ue6cK6Vrrhust19+re1B3S09cL0JPo7dC7qPdan67vrZ+qX6x/Tn/AgGbgaSA0KDY4b/CSocFgMUSMUsYlxqChrmGgodxwj2Gb4bCRuVGUUa5RrdFTY5Ix0zjJuNi4xXjQxMBktskKk2qTR6ZEU6Zpiul201bTT2bmZjFm68wazPrNNc055tnm1eZPLKgWXhaLLSot7ljiLJmWaZY7LdutYCsnqxSrcqtb1rC1s7XQeqd1x3TsdNfp4umV0+/bUGxYNlk21TbdtnTbENtc2wbbNzNMZsTP2DKjdcZ3Oyc7kd0+u8f2avZB9rn2TfbvHKwceA7lDnccqY7+jqsdGx3fzrSeKZi5a+YDJ5rTbKd1Ti1O35xdnKXONc4DLiYuCS4VLveZ6sww5gbmVVesq4/ratczrl/cnN1kbsfd/nS3cU9zP+TeP8t8lmDWvlk9HkYeXI89Hl2eDM8Ez589u7wMvbhelV7PvY29+d77vftYlqxU1mHWGx87H6lPnc8ntht7JbvZF/EN8C3wbfNT84vyK/N75m/kn+xf7T8Y4BSwPKA5EBsYHLgl8D5Hj8PjVHEGg1yCVgZdCqYERwSXBT8PsQqRhjTNhmcHzd46+8kc0zniOQ2hIJQTujX0aZh52OKw03Nxc8Pmls99EW4fviK8NYIWsSjiUMTHSJ/ITZGPoyyi5FEt0crR86Oroj/F+MYUxXTFzohdGXsjTjtOGNcYj4+Pjt8fPzTPb962eb3znebnz7+3wHzB0gXXFmovFC08u0h5EXfRiQRsQkzCoYQRbii3kjuUyEmsSBzksXnbea/43vxi/oDAQ1Ak6EvySCpK6k/2SN6aPJDilVKS8lrIFpYJ36YGpu5O/ZQWmnYgbVQUI6pNJ6QnpJ8Sq4nTxJcy9DOWZnRIrCX5kq7Fbou3LR6UBkv3Z0KZCzIbZerooHRTbiH/Qd6d5ZlVnvV5SfSSE0tVl4qX3lxmtWz9sr5s/+xflmOW85a3rDBcsWZF90rWyj2roFWJq1pWG6/OW92bE5BzcA1pTdqaX3PtcotyP6yNWduUp5eXk9fzQ8AP1flK+dL8++vc1+3+EfOj8Me29Y7rd6z/XsAvuF5oV1hSOLKBt+H6T/Y/lf40ujFpY9sm5027NuM2izff2+K15WCRalF2Uc/W2VvrixnFBcUfti3adq1kZsnu7aTt8u1dpSGljTtMdmzeMVKWUna33Ke8tkK3Yn3Fp538nZ27vHfV7NbbXbj768/Cnx/sCdhTX2lWWbIXtzdr74t90ftaf2H+UrVfe3/h/m8HxAe6DoYfvFTlUlV1SPfQpmq4Wl49cHj+4fYjvkcaa2xq9tTSawuPgqPyoy+PJRy7dzz4eMsJ5omak6YnK+podQX1UP2y+sGGlIauxrjGjlNBp1qa3JvqTtuePnDG8Ez5WY2zm86RzuWdGz2ffX6oWdL8+kLyhZ6WRS2PL8ZevHNp7qW2y8GXr17xv3KxldV6/qrH1TPX3K6dus683nDD+Ub9Taebdb86/VrX5txWf8vlVmO7a3tTx6yOc51enRdu+96+codz58bdOXc77kXde3B//v2uB/wH/Q9FD98+yno0/DjnCfZJwVOVpyXPdJ9V/mb5W22Xc9fZbt/um88jnj/u4fW8+j3z95HevBfUFyV9Bn1V/Q79Zwb8B9pfznvZ+0ryavh1/h+qf1S8sXhz8k/vP28Oxg72vpW+HX234b3W+wMfZn5oGQobevYx/ePwp4LPWp8PfmF+af0a87VveMkIfqT0m+W3pu/B35+Mpo+OSrhS7vgogKALTkoC4N0BAKhxANDQGYI0b2K+Hhdo4ptgnMB/4okZfFycAahB1dhoxG4G4Ci6zHIAUPYGYGwsivQGsKOjYk3OwuNz+5joo98N82QA13biUfTyHPAPmZjp/1L3PzVQRP2b/hc6GhCG69Ea3QAAAJZlWElmTU0AKgAAAAgABQESAAMAAAABAAEAAAEaAAUAAAABAAAASgEbAAUAAAABAAAAUgEoAAMAAAABAAIAAIdpAAQAAAABAAAAWgAAAAAAAACQAAAAAQAAAJAAAAABAAOShgAHAAAAEgAAAISgAgAEAAAAAQAAASygAwAEAAAAAQAAAEoAAAAAQVNDSUkAAABTY3JlZW5zaG90y+cnqQAAAAlwSFlzAAAWJQAAFiUBSVIk8AAAAtZpVFh0WE1MOmNvbS5hZG9iZS54bXAAAAAAADx4OnhtcG1ldGEgeG1sbnM6eD0iYWRvYmU6bnM6bWV0YS8iIHg6eG1wdGs9IlhNUCBDb3JlIDYuMC4wIj4KICAgPHJkZjpSREYgeG1sbnM6cmRmPSJodHRwOi8vd3d3LnczLm9yZy8xOTk5LzAyLzIyLXJkZi1zeW50YXgtbnMjIj4KICAgICAgPHJkZjpEZXNjcmlwdGlvbiByZGY6YWJvdXQ9IiIKICAgICAgICAgICAgeG1sbnM6ZXhpZj0iaHR0cDovL25zLmFkb2JlLmNvbS9leGlmLzEuMC8iCiAgICAgICAgICAgIHhtbG5zOnRpZmY9Imh0dHA6Ly9ucy5hZG9iZS5jb20vdGlmZi8xLjAvIj4KICAgICAgICAgPGV4aWY6UGl4ZWxYRGltZW5zaW9uPjMwMDwvZXhpZjpQaXhlbFhEaW1lbnNpb24+CiAgICAgICAgIDxleGlmOlVzZXJDb21tZW50PlNjcmVlbnNob3Q8L2V4aWY6VXNlckNvbW1lbnQ+CiAgICAgICAgIDxleGlmOlBpeGVsWURpbWVuc2lvbj43NDwvZXhpZjpQaXhlbFlEaW1lbnNpb24+CiAgICAgICAgIDx0aWZmOlJlc29sdXRpb25Vbml0PjI8L3RpZmY6UmVzb2x1dGlvblVuaXQ+CiAgICAgICAgIDx0aWZmOllSZXNvbHV0aW9uPjE0NDwvdGlmZjpZUmVzb2x1dGlvbj4KICAgICAgICAgPHRpZmY6WFJlc29sdXRpb24+MTQ0PC90aWZmOlhSZXNvbHV0aW9uPgogICAgICAgICA8dGlmZjpPcmllbnRhdGlvbj4xPC90aWZmOk9yaWVudGF0aW9uPgogICAgICA8L3JkZjpEZXNjcmlwdGlvbj4KICAgPC9yZGY6UkRGPgo8L3g6eG1wbWV0YT4KbMLP3gAAJJFJREFUeAHtXQdcVEf+n/f27S4IShNEFAsGlVgQwW7sGssZPWtOc6kaE89c9JJo4mnO5JKcnsYUc0aNsZvEGo1RrBE1NiwoWBAsoIgUlSIIu/vK/zfLvt3H7myjms9/5vPZnXm/+c1vZr5v5vemD0LUUAQoAhQBigBFgCJAEaAIUAQoAhQBigBFgCJAEaAIUAQoAhQBigBFgCJAEaAIUAQoAhQBigBFgCJAEaAIUAQoAhQBigBFgCJAEaAIUAQoAhQBigBFgCJAEaAIUAQoAhQBigBFgCJAEaAIUAQoAhQBigBFgCJAEaAIuI4A4zpr5TklSaoLUnTw4xmGESsvkUqgCNQ+AlCu2ZoqzxAXrrOsKdcixCvVPgI1l4IaVViZD0RJsKgpHZJQMmKkKwzD3pBEIY1VqW4zkj7DS63JrlcPFcDLECoCBbxUj7v30ZdahD4KDGTuVUSGMgzIU11MKQlOzFC3Ss0Qns7KQ23zi6RQHS81VKuQ6KlhigJ80J0mQdylp0O5pHZhKLGRP7pX0fQr4ya5caHNzi4KPH7do82Nu6jbzWyhQ8FjseVjHeOrYpC+jhblBPmpEpoGoYsdwtSne7VDNyEtxSRZTwIN52d5rH5cQRHzKaSnhSlNJWCnDOqgfjmqJXPB3XQmJOT5nsvxbn89U+yb9VDqUVwihel4FOShRhmB9ZjURkHM8TZN2YRubbmkQC+UA/hYSqabkeXki5LOgB5BsAuMJCUhhk0VGZTmFYB+C2CYQjfFlWPPzZXq/p7Kd76RiYbdzOLHFxSjkOJS0FhQc+t4INTAl73VtAGzu20zZkdUE+6cnx+TX06ACw+AvzrjIerPiqgtaL+nRElqCuIbMizjD36+iGE8EPA4EqUCFRoSgFNVvabaI1Am/8WFpVJugWsfBJywunVQUqMA5ttOrbW/Pt8LZUChcinweysNgy+l8bEg4nLsJ55tlWlw1W1UCnn6tr+eZucdSOBHFT52NWQZX+vGDBraRTVvQAfuv5BuXPkqbXDBOn9dGP9jnLjkSrrg6xIYECsHhalTK/bM2F7szNaNuaOVqZyVzgRBwK0sqcvUb0pPEbzQyukeIxvVZ3aS/KxpgA+7ej/fB97X1/lFqI21P+kZl7N2zVnd+D7cv6LC2K8AG1AH7pmZK3VSUpqtvnt3NNejf5T6hHvSEOgGiTmcYGi/M178IiVD6utqeKw0urRizw3vyk6PDONOuPqe5603dD99jT/uajwkPj9vhH5437Pa9QlHivxJoOHKCEqiXeFjaenVO6VLN8WhWyt260e9Pkzj9GsriWKUKQ9tlp+V1FNiGIM7eYIC47/hN37z1mNifz1vWxBdkZWcAc3HDH7e1mPChxduSUMjm6H9UIBc1TE2UWTkSZGzvtcfh4rhZePphICzcPKq2Al+h7u3ETJz8/XDA301550Ec+idmik9++Nh/RsPC9HFMe00n/fsyeAWhtsGV861B/n1pIAtQemHBKBDJD9r2rbj+k6jPyndU6JD9a39HD3jF5J4S9Qm3tLP79RS9e+cAmlEYD20tzLvyhyfCrldv06lSo1fW6zbcS9PijbLcdGBey8nrorR8DvWIUxMv5EhDWrRmElxHlxs7JznyeBwG9DaSjY0uZv/fFJI+HhD6YwPX/D40lE6oCn7lOzvXVIAuh/lyc/O7MxcKWba/3Snb2ZJ8jiBOUhdT4SinmJReAiLgnzZfC8P6SoUErG4lGlyJ1cMTckQUSJ8aQ28OQi6nSOxs78v3Tu2l3o5VM6prn71ZAm4QseeFT+Y9nXpp4BBOcOpEIoMY1FEKIsa12cN3p4oTxCQV2GJ5JWWLaLL6SK6dkeCnrfFnLgshSTdFM7FpwifdApn/+VuerCklHTDwBnLSveauvcjP71bOnPRLqnJu8OZ+5aYXHYFH0kUwkncfdqpDkH6ikh+Mg3w4Wau1K9eGSu8INMqap9JEdTTvhH2zBqrqdC7solXcl1h4ff85Q7DGx+tLV1qI6cChAs3xabTvyu99mOc4d/P9+bmOXrP4NegAlHUSpBaU1hvPadG3Z+20QmIh1GrEj38dBK6nSsZK92hC4JZCZxMlr6Yv0mX+f547WZ7iEmSGCL7qRktHuh3SWFdvW0YNH1F6b5HVh24iFAGjeulvt8xnH0Pxqz2gbxceMkKtWRsxuPM+Ov1aMChROGLn4/zwRn3y1QF/t981DAl4z4fCgXzOQjr0tgcLsRrDwhfbzpqmAYizMYfcjTmGa54QCT7rncddjd44PEyc3ogHKgyVT2gd87JlxbsOSNE7jrFG3HFQnD+PlqvnzNthLo18I6HsC43I4Gfe2upbqdiLBKL9Dx0uiQJWrNN3G3NJt8R/5KVp1SpWFzZGE3vdtw87LZnLufkeL+6SBefVSBF2ONxl46x+dcG/ZQZo9RhkNfB7mBjHRe0px2O+8j8m+F9/WN56ZrkDFRppSvLxDauS+sO8nOvZwp9IC/9IS9Wn7wybvALVIZ7kt21prA8YUTc15s8SAcAQl+YUYc3Qn79O6gGjunJrZi3Qe8pK4AjSeKmhFt5+6Oa+9kZYGQCQIWU4S6yuIXl1Fy5rWv7zzX8PqwsZYMVw9+Ga9K7RbCjgXYeXrhtzTIxmwo2bmH8BOnfPCRGNXjHSX7X2gM8K7eMTlyRhn62Sfc18PzNFMyhteEQP2fTUd6srBhAZWQPzvBSX26sRoN22atMQMcKEStprFz3QXqa/rm7atPSXw1djl0q000i5OTrHYYxrITWgv+LjvKmTGRSOhp0454EbU1rwwTvjy1ZCNTp1j72nvF7XrGHn0vyb9+cRX51UTzJD9MgrOfEBSXX8ook88fJHq+7dKyMP99mGAgt2NUQz8uuYmMdDwNl2Jpm/Qzy2alL9JvTctAoa7+qeoZy98ys7w2xENcgYplhJKgvfwxTawrLETymAoJVRzb8NgDQ2z76q+bqtKW6pjBGYTTb4uq8Dw78IxncujAZxqnCAvmeE+aXxiuVVVQLFs0er3nfyxMtgvS41CIyx1jWYtkDcgM6hKlOfLRBH5GdX6brfr8kTf3pUOni5/t73JD5SXbcBUPfBVv5j2U/LRT9D8ZpLnduzXaH9Lg18wT86ZCWbh+M10zs0EJYv3SXAcktpCW7DC808FNth3h+luOyZ4MMZv4mvd0uC8xSvr06VvrylSFMmj0ZVvSGR5J4Xyua8bF3e9UaSLfi82HhgnSopn6jO5dXxDhUVo3rM6hbhArhsTB/bwapobTnQQfz7n0RnUoW0SXoMot22pYSvK7F2wwvNgxQ4QF/jI/7hnXeJXx/lW5hWo7kUFnVq4MnTVQoGoYjgnwZ5OvFiMU6ib0PE1h3oBdy9JKAbt6z+y01pjspTei/eLs4GR6W22aE8TN/4G09nyjKE6mwrBGCglsChfTPz0arzu84UaY7Lt8R3wPabPAjFDnjei+jGElknA5Sw2D2T/nFyNxq6NmGRTPHaPqp1cxh67S48wxpy4c0tl80WfvFrFW6aZkPJOQNU9HNGnF4UsCuwroDCnT6J6WxclxYWX36sibp6SZsjL1KLPPasyEcLtFY+V/08UKJn/1oQLiVhRXXwm2l24HuAzwOFWFeKQqFgfum9uLA9J3xJVhWtCk+R6zownXxz1iBWBvodqOe7VSLreny89Ld/MK0bPvdwNBABr02SL0YlPsmCHMdfo/ghwsOxoDt1JKtN7I76nz3vvS/FbGGFmdSCEUIGPXQyZ7/k24b5McX8lMAJLeMKDjuEm6JMzyz6iD/D3tCYXkKGtuLQyO7cgu1GrQS+NLgZ8DYgmHCQ5C6WwRqMK4XNzQ9R/ps/UGDPwy4E8UFwCd8bG819w7JF949ifz2SDXq2041HlrzO+R4SXw1SbMdRKrJ2N2L6zL+WsqmVI/YwkJE/DoDj0bmkyTBocKKPSO1gpm352R+PF71jzGaAZVVVrI8KFx8fR/mrf+8qm0Z2YLd+OWbmu+7tDJ+tWUWG3v1j7pFj3UIimuZgfGUYlBWuGVFbHHIfK7YICOpe4QqctIQy7fqIVTnr3YaFjkLf/wiP8lQ9r2wy6ozMFHf7ea72WUweeAKF5ckfEjii2nJil4adIXkl3xTarX7ND+D5IdpfSNVqcv/rvXrEqF6B/IaD7+H8MOV3LjIEmwBfnnw2wfLJcKh5T5wylA1+JMl3nsooVV7DZ+TfR1ToXKZy6E1J+RfsyGOx112osGtwyVTtXvH9+J8PLTMTEhvCvz08MNKF2Hb9HwH7OVNg5j6cyZoOs+doEkPgKEMpYHyh/77qsf20AD2WyXd7GaQVYgyHzypA8pqqykeY7zmMLXk+CMpLEMgAK80mY8RfDdIhjFXdhXDmFtO1py40mz8rQR/hY0Gt2TeG6P+t6eaOSTTqsoO8mFS57+ifaFRgGoSFADi4CeOC8bmfE9ekabK8Q6IUqFebVUDIAyhLSJzuWeDrMSR3bhXOkC3Vzb7zwmT0/Ml6BqQDWDFxiVK9rrg5QLtOWfYgvnLEW0fAk9cEYJsyQj1jmQXQhptVCN+X2vi9Ltwd41kRnTl8uH9dYCw+SR/axrw4Up/cEQ3Vcg/RqsfWvvLzztOCa9lFFZgnEdlv4X11U5+BrTgiGUzrCGDvpii/U9Df2YopM9hq1dOoykvZ2C8NWzxFI/nQeEZm1pQ7tDC1zQ7GgagscBDbn5J9odN7IaRI65h21mhquHkOI6uqKR8Sa2nMTbzSYHMzQdJpYJOGNkcSEANHzxiImXfcb25R8H+7Mfyc23Y++LrvC7HiycmJg3mjsPzaZlWhfa6qX9SJ8jTHlgJ7DxieN6efGjNtrh6WwCV7txAKytk5X6+vyPOE9eEYUWlthye0Cbp0ob7ztYHoWsZqN3Fm2I4ya9dMxZNGcb1gAr2mOTviAZh7vePVD09uoeKWKHxbFvs74a/OpJB8oPPKxGv1FRJeyiBn08Kg8erPpyg3ejlgf4J6Spf4EkBrGhYwcA416ZPJ2h9ukewWxaAsmrgx4zGdCtWyyODnI7zWphr1/VHUlia1LuW94crWoi/veUKjEVhSciuwopL0L8hw4/HlkZ04ibAi4WRi9oxuFUCYxDz5NiHdlKhenWYyRUpuLIMezYuwPAVnvhMW0s3+2iSsAC3Ykhh4q7wEyzokzjK0/bG83i21CJc4Y3jOHpB+EhBMju7tVYVg56+ZSYoHAcSDF8rHs1OvML7nVGajZAnYjfSzOjAAWGzXx6oHg1dKyLXbxeFT/D7IXraIcI+NGKXMPm+MAgrQZJ5Y5gmP8gXvQLpcQduG1FBQUzR3InacU6VlTGkZHfYxN082ySkigluvYAqjtstcbAgcvAvpy26pKE/ygEBdvbHWSoKi2AfFMHgSnMxXXxX9oKKK9apY1wGIJNq3I5LRCGw6NTcTRgcw+HB4uRqTEjyszEqs3KAPWp1L6QhmwFYjFX8NfE963TgMQ57Bsbg/DcfFZ614+9/+poYSvLr3UE1DyqrTWsA0uB58orQmxSmX6QKBfkhu+NapDAkmkqFdk7sx2WS/GBSxivhOgog+dmlsSpiC+tEsjCXFKZZAwb1ac+OgvzbHTIghXNEI2FJ4CcqVhPfWMBeg8sAIVyNk8wtkRqP2Y0IAaz23+4ybE/Ptnx0hndVv+ngK2RRxKxl8FoZ5ZUM5AdT2mblAAPRy6qyoCjjctWdmK6PlnmbwJce9lH+x0EeZdYK21g2z0tzoXW5Qe6eXbrJPw0CT1gJDbDeEtS7nera5MHqZVfviP+av1nvKy+TUIaDD8xGeHf1IZ5y7YnfLgjD5bVpSn7cHWrbmP1RSZPdGQ9QO9KMIvYf2JE7DHHkyrwVtTEeYCb5eRv2kOJKuc1Hgez9rsqXGNsWFsj3GPNJaSeSDJgFh2Wr6AjJr1ppEh7ztdQtOS5Yi4bXo/0kPw+Zg5NXzsDybukBrOU7Xr+u57vr3mdul/OthgdLxa4G4RURCS8UlxoOfj7w65p6l981d53+4q54wZzWQB+U+VxXxzNtctyiIBJbWCl3DE/JPNiOaMyuVj7XhvtmpjRIjrd1Y2N2Y+Xn6rKhVXGkBWw1kg2s52kju2UbNlx3U243ghZN6qxx6rYBPsyXPdqwoVOGqHFL0MY8LJR8D50Xxig98PuFtVcLlDTZDa3cHE9PRGzhpGeJ3WU+pQ2nLyDYaP6xklZJ9+8dnyI3HW/miDHuyGYRC4qgvMkuQA2h9Uk00eHsAlCaNq1LInMVEhnW/mymk2i0sDg2BGYuxvKo9FcnvFXiXWstrF/jBbRoqx7yWrYNQ7axVn8MehsfoXEzS0RFVkodFnLqpo/0wDNB5b7a9tBg7bSwcvPYVmVLcxDC08DQHbxuT0ZN0TNzRfjylrW84cgQHG16DcSdg8dtLt4siyk7T+hoHSfsj5wo02AwGE0eqMZbVoz9c7CLQAn1PXFVOAv712Q2s73zNL8W/HcCn3GIvUCHmidcl4izg30i2TnAZ/upB2mZD8VnzUIVjmbBDOI4lKAgVdZZ1LoJq4PtYDbKJjNPcrpcQxk5ZMSmqwVHE7VU8shuPNkA+0F3y881akugsiprGKZ1ZUW4Er7WFNaVdBFdcbM64qUBn07Rdmtcj3ngSuYwD+wrtCl4mP5YJ5gBrlvHqByKMb02TbGe7SA3zX1qLk18XcWpIMU6JliJAW4RzVqlHyvTYCb1gK8vY1JvMhWdf76P6hgorGfMFJPjeqakvXJb+AIe38SkExeFJaQDMPCSlTZNVD+bgtlYsIqeODtowonYwrMR4gIBK8zfr/BHgXWgNXtxCWpuTXP0TCp7JSVCKCmMj5exDN4l+VU3Dbp15CZldUdcAfm1prDcSWvrUCZpcIxq+qCOXBwUKNvPuCNhDGvzlcPsBt4yGO9RxuFSi81RVJX1A+UAHZwyAyubsXEvr2VB3frHeG45ahnjJawNqpt6VzR+gfFM6pDO3NvWEeBKDua1RgF8yl1YzW9tdseLb4A/HmMqgV0FQ6398XOfduwNsOx+iEr1lg3tyvBeHtApcbdMKAUQ3F5a8qkTel5ya/ofVJBN2SsxkDca45YrmEovDCZkxxVS5VtYklSdk0PmPNSawsKLFkP8jV8VBN024wmKMOtUolUzNz21zO/1PNHJQB/Vmain0C0okCX4E10RAxWF2MLSqJH5q2LqduLnalcQjvOAZ4fKlBbuEteEAXwY2GRtjsqDK3+uVUYuagC7Coymf5TqmrfG7qzldfioXP5+H28zBvb7ZQG9MZSbCyd+GvfvmSNTOKA7OBsrPgWpnFPDMXlAME+SyJ6PYG0e5KFKjyguLpXqy/KVtppzc/GucTBbKQEhDzVrNchR5m+ahCCW1fISnqgn86A7hzzfrYmU1ZrCGtRRBdsouDKNVY05ZRBb9u2yiqOeF7olk+C4Y+z0gp9LK6TlcFVta9XSeSi4XbBcU5rwF9qiTao6wjJ5XMFji57wriOmKKMBxekjP/eJUI+wp1QwPe+RNBWOMzlivX0HD9jDOibjvkXSKnW89695sGqvHA/JhhnEq0APsfZT4FRlKh5OK+1uHQ9+ruvB4DS4Y2zKXl0PltiKvF9ofAeNQXimOxFUJ+8bwzg0opu62uuoO3mofFPQndhqgRfQNnezlNE3DGCuyc94Sv+xAT0lP9eW3cCXiZfjhpMvsZP4pZd5qsiuDxuJzaKCfdlylbJVKEqcDKvtX4JFla3DLJiZAygcvt7oBCwPsfQvFX77zwsIDupTUCxOOJnhDCg8h1tQggPYI5YQFpepC0ocF7Jwue6C1po3nNGFP142poE/umhDdECAlUs2LSY4zbTcB0EOjlux9+6Lf5KfnwQbd7efNFPTCqumulzmeKAq2hQa/BKahnDJypdxMVV4TflcG+7mweiAHC+cZICdXeXn6rL1Aup2454ZLtSikeacMi5QJPpRPdU94dTK7Uo6yQ28/KAY1cckPzi3HcGxyiQvBAf1fUD0UBDDgtk4xaPZiZcInE/lJ5sJlXTAAuW+CTfIirV5EHvUHfFQuWzKnncASsOnMJDMmeviu6AwzUMVJJ7/77SaVVguLkWo2pci2TTLsfzWwShDWXDOpoivQ2EhtsaqNj32pXVooT0r+2bCKQH3Hri22VgOUxE74bo4Wx6jwuGfCq/cUgo4R2wlPrPJVYPPqmoUgH53xt/QDyXak3skScJHDdmMbzmTae0PMtjT14Rl+PQKkmnVmHNr6w98BmzKHjTdcls1hvtpCAY2oOM89CJ4UZIJgZpVWDDPW0PIK7slRCWEWwMx4cbzkoxJOn5VYB8/Rs/WUPqI0TwbjbJgj6S5usSeE6KgEgUTmauACLJD957ho2VR/t7SuZgQ9zcPy+FNdvagKA7P+LlkYHZwA7wLaCc5NsBTAJt5iV0yfIT2rSzxv44lOPeF1tWLGw/zNuNkOGRdD5QT3dL+LCZJOqhtGyUK+RDhnK6vSPxwjwA6dknYCu+FWGZJYf6/0WpWYVX/ALL8/pSK0e7EwpBOmg/lAPgar+2nhPVQWOzyy7zVZUNhljq1ZGbL8vE57DAAvER+rkob8sncuCesgD2CZrGDOmnmmh8q6MB5GNBR9Z4rbSy8gb1Xe/V/XI1qcLT6HRIvPohwyS+GabDNiLhkghTGmgZ4tFr/G78ad11JplekqiKnJ9i0sLDsLq25r/GGbZL5eqfBP/uh+C1+PyR/V2k5OZL3vHW6zVkP+eGuhvkj8NmBrbqSXnWbOh2nsNwX264CigxDqbDh1DzI/PNxg29OPnI6nuI47sr5ju1YuEaWgKe6V+03jIHC21emVaE9cOmvwmC5enpoGMOL/VQHq0I+nDawvy0c9+LMwLntxf7edpdJ2ARv0gAdhnv3btl4ACEZbgf69Cf9bgNcHEHyd0TDyurwRTFpy1HyhCxedjMqWv2DIxlkP/JwRLAvSu/ZVnWaFAYvZ5m/xfBasQ4RlTMpjJIGeWGzHkjj5/yoKzidIo6ds5b/JT9fClPy/JHdzktVleZOhNdRE0aEOReTgXUNstPaxq2Bl4ZqR8h0fKb7xz/oPi4pkXrKtKq050FhggJlV4HiuNq0CSqCI5rnyfEeTBDQ7jPCQQjnL9Mqa4OsZnC5xb6rty2tq7E9WHwFmbIrXeFoQE5xvyh2rzMBfdpzHwCvJRFOAmDe14ZonrHXOsHntH+yQR8Ld1kuhjwSWzfKKIAHv49Xth7jkxdt06tl5a3kwe6hndh5IRXrKhPTAPmQXhmknmjvtItrcKfl35fqFsJtNysgfXhpi1MDfHj1bqdzKdJNuPnpJzjr3Vju8Szq7A26xKws+0fIOBX+BDHYrczVk0bLdelQOFwuqO6nxRIPbEJ3GE/XFkwqHL38jRwHPsx/0c/6Y3q91EWmVdaGguQzc2Xp56fnlgpvf6szZGeXtnAkc/bzms9g3ZH5BMzluw0sbHtJBTmVVlogo9mRJCEZ1kuZkwCzk5l/6adeYyZUgeOZdtwcjQPVjM9tHxTNbnA3qtD6zF24cu0v9sLhLu6bS0pnxJ4VinUG6QPIL75aTQ0/YxcLbKykAuA37kammD3ze/2qVft5WHxKlhjow+ZP/ZPmM7KvMyp5DSAOBUtYbozqwS22JwEfzfzOCv3kjXFCUdFj6R1IbzP4aeGH04+Vkwp+deAXDr+34Xz6gkVbDfFz1+uawnX25Qx0c70W7NTtBj63upkPYG1YerYoufLLyMUd8+o3DopUtUReJEuFc6rIc8cyQ2VsCVnW9DCOFRaOZu4E9fSXFokDcwukVvj5xBURzVmnP5VfLE31qYOWu9MKwOFlAwVElZMnToJ7/JbB1VhGMp7a33TSdhe/HAbbEJ8BvpQ9P1xfegUXA3zY24fr9P5wQmgayMSnaiYp+V1xmwrryF2nhO3L9xjMFRRvCflgnEdvkGnRYK4IdMJTR40udI1gdUeTyHs5Y1oyxyFOvHrdbfPiAO6n977TtYNbb8zjfUoheJZvyU4DC5cyfBYdrvoMzsPHV4ahc6kCgqNtEL4M5FQy3DRjZ7xKloVbQO+OQr3w+5Bp7tmOZy5fHsjNunhLGAKX3UaQ5OJLMDYeMqi3HDEsgpMcFuFudmgga7zIBM/sPngkmfNib+xNlgtd5t4bY41nt1vqhuxpx15zgEf454rBV9XXhKlZhcWg+3KmYENFtXUPoYBZ4hFRiRynPRv4BWgyR0/7riQFNv+GYD44/wnNWKZb+rfh6regso8D0mXgc+krAvy45RoDlePnZXsMIcoTJyKaMofeGqG5+ncciQMT3ZK5CoPuY+EuwS2YDSstGJCtm3JXTMwrEr7y9WLxQXdOV+abFFULWEm9GWRFnVLcqoKvvfrnBPW40CDmuoOkVMgLY3rqijDraJL+S5KAXpHaGSS6q7T/TtLMef1LXd2MB9Jb9sLAoXsIzyDin7sGnx4yY6R6YvsWnNsfB0VcxAWosj9gxOfmSl3eW6dPy84T7baeseKC24qMPzmsu3bv9tz2iUPQoxfcDfiE8ddolxAqz11L/i1KxUKrGhcow3sWSZJZeVlotq7gYKb4oymererWQTdkX3wjMZzFFQEbdpPOp4oZsPn1JchDI/iVm3aGZ9xEx6cyNtUL0ptHLgnZ05fpTi/aVl5ZRTZnEz6fpMUXC7ik+IZ35bZOe079Kq48stl7VkCTvtC//cNhPg/WaeHLHvrBD3dxcHcBdxPwWWK4q9ACfi/Dlzdz2W5D6qQvdOWUFT7O5OMXNX+PCuOMClGWX5V2lwh2tbfNxD7M9WtQce82qNwCVXfjxRiumK59G26+WehuWGf8eJD9nVHqyf2iuB+c8Trxdzr+FBjIPPr8ZU1zOO47y4msCnuP7qk6OWssh2/4dqncVTiiGghYoy0sGP+GL7k8pCSlVWP+UmTZsCs2Q3Y7s9vAOdhQyVv/7X/6NbCuZ6LMj1tbSWn6EKhoayLDWIQPvPsVjmuG/YhZargsE77g9fGYA14xnghnQikvZMUysMKBm5e/nzRY/Qb+qspyXbGHdeZWx6cYbizawh/B16hjg1d3b/iNx78xcJbVmLIuD4P84LJQXCLxZR34gs1rGaKxy2AMpPiDk0zR7AnaQWENmAMKcpU7Ia+Fi7frvztwXpisFA5jhm+Bn1wQlF5uuU0VcOY/18EHJUVY51ZgO8wwdihC5e7XMZw7YofFHbLWFeaAAKYQLqZotva4fvO565Yr51wJ64jHC2KHHsKaPpEqfC+AW+XOkdza9KtRhYUY6awls1JVFAiLOIVLYlUQj6k+iOIFhZdTJ36xoLT+uvGI4attR4W9MFZgbqpjRYRnovDPZIJlhz27ZWOU8+pg1ZDIZprz5WqtvQAEeueW6qOFhVL9b/bo98FV89FKFrhAE6XnuNblwbNrcKVVEihOfGV5tX3RlekbHf14VlyidrLyxNKYGPWPSp7Kuj99UbN+z1npxKq9padgWUCF918+05b5flK/wulBQUHmsdbKps3V8OHhjA7K3cjYeL7v2kP8L7Au0GF30plcuO7rzpvDNKMCfRlFnXMW6sn3r1GFxQZoD6P80msAiwfy4P5XXfCIBao4OPHKGA/01GLdjcf05T4DBSjoh0N834MXhZXQPWzqqhysGDqGs2eGdWbf6dySw4PLZg3nqgxrvnpwaCGkp9P43ihm6zHDgpNXhb6kc9Gtw+Fn3C2DkzG2j+jBfRLiiy6Y8kdirXJa06a+eXCl1etwkuwK3PprFcpM7du87PTRqoxsaAxzA/AJ+SFOfHv/WcNC0+Zxp1HAON79rq2ZOUO6lGyKau6XP9tpCPcYIE0At2tdMRPfbxDGd+dxYRDc7/jdnVzbEyrspQDPynZpzW4f1UPzUavG6BLIq3S5sxdXbdEVoyO1lYQnP15c6FLuoYDkNH3f27nMn7IeoucKS0RfPFODZ5LwAYBwzHJOo/qqDRGN0d4uEdxpKCwuz8ZUBAFIExefjHwu39X5ZGTxXvcLGU2JHjqoYLw8DUJDH66kYYBY/HSYR0F0GHpUm4UX43c+VRj2sACpBsSofjFVzIpk26UwEF+dlAzU++ItfkB6ltQ/Kx+FPtaJnrD15jYcjHgV3tWxhvVV8U83Kr7cs51PfnWnx6VEE5gwbhmFyO9SMt8p9Z7YCz6avWGNWXO499EPjoW+78GhtEA/5jTss4xv20xzLiYc4VugKzijSUjAE0iiCquCLwUKE1YORgUBNr7+HDcgqKEIUAQoAhQBigBFgCJAEaAIUAQoAhQBigBFgCJAEaAIUAQoAhQBigBFgCJAEaAIUAQoAhQBigBFgCJAEaAIUAQoAhQBigBFgCJAEaAIUAQoAhQBigBFgCJAEaAIUAQoAhQBigBFgCJAEaAIUAQoAhQBigBFgCJAEaAIUAQoAhQBigBFgCJAEaAIUAQoAhQBigBFgCJAEaAIUAQoAhQBigBFgCJAEaAIUAQoAhQBigBFgCJAEaAIUAQoAhQBigBFgCJAEaAIUAQoAhQBikBNIvB/zrTZ1nsyFuwAAAAASUVORK5CYII=;fontSize=14;" parent="4_tMPqCt2Fl0vMyQaccZ-23" vertex="1">
          <mxGeometry x="30" y="2.5" width="162.16" height="40" as="geometry" />
        </mxCell>
        <mxCell id="InsQ_l6GOQLopfFf3C0F-21" value="" style="shape=image;verticalLabelPosition=bottom;labelBackgroundColor=default;verticalAlign=top;aspect=fixed;imageAspect=0;image=data:image/png,iVBORw0KGgoAAAANSUhEUgAAAKAAAACgCAYAAACLz2ctAAAACXBIWXMAAAsTAAALEwEAmpwYAAAf40lEQVR4nO1dB5Sc1XW+MztlZ2Z3Z2ZXu1ptkXZXu9pVQaj3tqKD6EIgUDGSaAIhUDHF9GKwMdWA6VUgYUMAF4zRYOIktlNMjk8SY+PEsePYcXKOE9vEBYitl/M9/SP++ef97+9lyj3nO4jdnX9euf9799373fuIKkcaiOg0IrqPiD5HRNcQ0TIiShDRNiL6HhH9noj+gYiuJaIu1WczRBSlypEIEaVV/99NRFcrffuAiH5IRDuJKElEy5X+PkRE9xLRKRXW19AKBn0VEZ1KRMcT0dtExAT4QOfn/0dEbxHRfyr/D+V8loiGKLwyTETPEdEflDb/nIjeVPpipe9/R0THKWO3SvMy1sVAYsrb/CedwXUKTOYrysRiovYQ0coAZuUI5bv/VmnLq0T0R4/6jLG8X9lF6qKS+cq28ZdE9F0i+hERvevRJMhwgIju8GmC8B13Kt/JfMa7yhhjrP+CiO4morm1qJEpInre7kD2H55hwwuaWSYbK/l5U2uMzT2xlaVbGko/EzH97Cc9tp/w7GdMtSVS+v+RKPE+98/IlPy8IR5hPSMpNn1ljjXEInYV82nFnqxaiRPRQiLaTETnE9GXzU5Cz0iaZfKlioaBPnV3D9u1b4Sded14NmVpC4s2HBz8xWeMYZc+OYnNOjbPIpGP/v7IzWPLFFYH3yeid4ioQEQTXej7JCL6unJI+oHR90cixGYf38p6JqcP/WzcYCPb+Kk+tunOfq6I+FlHXyM75vxOdukTQ+ziR4bYmJ5kyXPiySgbN5hiqWbNy6iPV5W52azMFeasKmQpEf2z3dUOg3jZM5P4IJ92RQ87/MgcVyQo5e4XRg5hy70DbHBOE1e84s+gpIlUlD9n3a197KKHBlnXpNShZ09Z0nLo9zr4XyI620HfNxLRb2X9m3lM/tC/k+koO/2KHt72bEf84O+PzrOdzw/zn629cTzLtsfZyTu72e59H/V9zqpW/pJhZzj6vE626a4BtmvvCFu6tt3uisiUk/YiqnDpJaL3jDo7d1UrH9Qzrx3P/7ty41g2dVn20CQce0FnibJh5dtyz0DJz4ooTlYR536mnx02mj00YVDmCdMObmNYFTfc1scaM9JV4oDi5rEqO43svOXntLNtjw/xf2Ol2nB736F2Q5EAbf92PFfaP+DCBwf5Sqj+GXYBrKaJxijfthetHsNWbetiq6/q5UDf01nD1fHXlX6Cvs7M2zamN8kueax0AIvAtqP3O7vY/vQkvrUXlXjdrRP4RBm080IL/d5u1GcoxG6lPX3TM2ztDeNd7SNw9s0T2I495QpbXDVNroRXUAXL4+rO5DsT3JAuYmRRC99SgZMu63Z9AqRQbWEAVoWiHYn2FP+twodENGqiz8eI3ClYhYtKPv2InLQtuz3GefdNZDOOOjjuwws/mg9g/LSPbE8FcIlVrNyk7gy2GdhyviqaBRx74ThuS217Yogdf/E40ekZTu0xkv52EtEvtco3NK+Z22QTZzexgZlNZWbC7hABCqlpP6IsFSvztJOBDgY9yDKs/+RHdhi2ScGWtFfS35e0fz92oJFdrmyDOBxg+w+6j7t1APtb0N9ZVMHSKQoXnXW9+/aOF8CqBVtRMCmiyMlx2r+DK0TvsBQ27HhumDW3HTz0qYCQYAdViw1YBLahoAfcLC64fyJLlp+Sv6MQBtTRjX/U9lN7eg8zjofJIT6EVKwNmFAF1UsAAx/uBzMDA5dL0JMDl4WgHwjyF2W19ve9U9KBt3u3soqb+TssCjoK+FslPl9xMkbbGZy6lpzZzuaf0sZXFjMDs/WhQX5ChaskqEnEoSE/LqGdmD9X9fXbJb+LUIkt6Tcu+twgO2VnNzv3jn52wQPmxnnZ2na28LQ2tmJdB4slyjwALVSh8hN1R7qGUrZPgIgCTFue5QqMiEYIDPQDSqhusvZFg3vJ7/ZdvmeYnbCti0d3jtrSyS5+dIi/tHBIW3kOFFDTH0SxKlYu1U7OjKNzjvxep328h3VMSPKw2+lXHowH+zLJ+0a4w1zTn2u0riasfnCe+6V4m+8aYHNOaGW5sXG29Kx2Humx+6wzPtErIjRcRBUsMM7/RrQVm7VNRMBn8ZYjlITY6OiGDrb9qUlB2IIgLfyL37bfrn0jPC4OpzHsaTiVnfpX8bxYvEz5vlUN7OpvioxbxCeL/jG7wPYy76Q2TkkCqQDhJbO2pR1gkotsFD1ASb36/suemcRfvNaug/YoQniIdbvxYun0S23nVqz8t7pT7eOTnMkChUFw3K3Q0tDcgx58rAiHrcjyn3mhBGDnyBTwfA9egMuemcRtsyJ5AAcimB9uPHvrI4OspT1+iL5VpLCpIj8VLyW5HGP7Gz0LRWFSYAsVFXGaB4oIupee8kFBvFS8WCLClqwZo0swcAoBfeuvqQoERmxJx9ScPbeBbR0htKI9A0XE9+FU6MbzYW/qKSC4hm58x669I5xsqibiTpzV5NmqDoDYC1NG06dNVAXSqOQglHQOPievBhNACAxUdTXZE74up3YnCAt6Cgi71mm7V1/VW8Juxup30uXeMoXOuXmCiJj7thJMqAoZJKLfaCcM1HMvqUg4LR7xsbHcvil+J07NRdaxHYAsq6eAUHi7zz3/sxPL8j0mL25xnQupxZpre0VcSBBRB6jK5B3RpIEn58QlYwbYutQ5FsCk+c08YuCmDZjJxSy/UDufH+Yrs/olwaqHdAIvxwTAdwi2XaYkwFedlERFcGrF1nLOLRN8IWTyHIkz20uIpth2jtrcaen7W7vLQnIl+Ngd5t0i62/rK3NuYxXEydTr8QDgssIc4PChIeDCt1l18nntZKHjfgy0GlD44km5ZNJNhPdgn8mUj6/oK7KmVj2cZqOqScdKtHJjh+/saMSsBZlzSJivOlksoqojj9dvxgsYz1p7C5MgM/YRaSk6gGWAUsn4jjgcISauzWdeFwDZYs01vaLDBypHLKAqFWGmGOwzLyMYIkDpF5zaVka7R5qkNvMM/jgJXakMsOFEW/HJO7rLJrxnJMW2PuwvuQIr8IJT2kTRjwNKQlVVyw7RpMFN4lZkxApO3N5VZohjhUKqI36/+e4BTqs3q3xq+xLPLk74vJNay5R96rKs7/kh6E+nfn+qXvkgK0o6HSE+OfCvbfy0fywSNZCPrF2ZsIohe02QHWcJWN1BUND+fP7Jbb7bewAc8qsu7TqYF6wtYUK0hGpAQG58X91xVDo4+6bgCKcASl80NpkuY+EIy8/pCLSvlzw2xIkMmnb9XqmjWBOC6lAlAwB7ZNZxeV9oVTK3CEwBL5UPhNogle+EbV16FRFupxoShOe+IZogbAuItzoNmdkFymF4pXxB5omsubZXxuR5q9qrY+kpIXJshYPS3BbjAXm/7SQcDLxSQNiZfr9Y62/rE1U70Pr8ak751HKedlBAtwejBYPnt4FuokaMIxy3dZzv9t7o+g4eQlSH+xSgFFtdlJp8hwYGbhGwZfwu4wFyhJfKByAK4+cquPP5YX7qLVYaUwF5zHVRZJtosqCIk5e08BTDy5/1dtLAhzOi27sFOLs9Vbx9B0NscPUgyqLTjq117StNXtovmzRsH6je5EYOhBaIWlioJOoKQOva7XI/EMFBXgwo9gbf/7VqSDZyW2AI36pXUbQpH+OFLN1eCeGE9lv5OCIHSbluU9EQTeqc2Cir+HpzNRFNvZBWItqi3JFxaPBQxRRvN3JXzTBXjAB/I57n17arh56RtCurOvqDCqs4cCDxS/M9P1MOHPmgJ7eSpDThWwMk6ICd0j2c4lvz6qt7TU0UAv+gQgnCUIEh2hDh7GfUsTbVh4cGeW71+KlprmwmVnBUqq2LRcmZLW4OJrLeKoJTIDiAqMeMIt5OY7teo607wSsdgK2sV8AJth76YvKZP6jk2i5By1jFUfqhzLmLYkfLzm7nAM0IIT1UI0Vyj6DQjnsrF3mrzJEI8QMFIihIXcCpFqE83te17aKtVo0PlDtJKrq+X1ikS3EbBHGLEktGomx2vJWdmxpgdzfPYs9lF7Ev5paxQn4l258fZS/llrInWxawqzNT2YnJbja+wfTqxDzA95VU2HFBT1q1bcf3eniXmhATGjLs4vQk9oqibFbwcMs8dkqyhzVHTF2Ow1zEAWXlawt60qpFTlfdeOkL2qNJdkVmCttvUelE+HJuOduSmsjSEd8PPb8gopODnrxK9wveazTQDRRhU2NZdnqyl+1Ij7A7mmfy1efZ7EKOx1rms3uaZ7OrMlP4FpqP6ud1RCjC1jZOYF/JrXCseFrsyy5mC+PCoucMSESirLchzebG29ixiXHshGQXX0GPS3axJfF2NjnWYleJH651soHdu4L/Xl9RiM2M5dknMlMtb49z4uJ4b0skzj7ZdLjriqcGVtQLU4Mspjm8RIhM9+OZ7EJ2eXqELY63sziZJk58p9JvPPJT+rU199TAavB4y3xbCvBoyzzhyTUXSfBDhJfKp8YtTdPLlPCu5lmWn4PDz3mpiaxVsqqr8GOlQkVdJDKViP5DNICd0UZbk1TE6/lRvlVrn5uOxPiW7ZfyFXFNZirf8ovtmNTQzN7Ij9p61pdyy9mGVD/fxg2UENGlkboG6ofgfqS36r1q4ySqxurG8cJJ2Zae5LvyFXF6sjTRHfank+dhhe9vaDKzEspue6pJATPjq6IBgyEOX5uTidmeHuZ2lsjN4vTZTvBybhlfgdW24HWZaY5P3fPjbUZK+IZPt8NXdtx3VbLb8SRfmZlSstWpcUbj+MCUr4iVidJqWzhY3N40w9EzYW4sS+jXMVRwfdCTHia7ryzUhtPq1xyuTjc2HcbdNHqTsCYECnhuaqCsXclIA7vHgb0LvJZbIbR5NaG6uj1IRK9pB6c5Emefzy5xNAGfapph6KaYEssGroBnN/YJ25aJxNjnWuY6evYXsktYNiIlp75CNS5lt2kCH89MdjTw8Oc1mnTawnEdpAJOjrXotg3KA0e6k+dfm5lmFLar6Nswncoetw8GiHhofWwy9DVkbMV63cCtTYcbtg+xZERynHzPjJh+UU0ieoJqVLLaEh0AGCV2B/qi9JDwtGuEabEcPz36qXx7sotYR9Rc0SPYhHBe2/0uMHgkz/8dETVRDco5Itvvq/kVtkJc8KFZVTw1EIf1yyGNbbUzKr9vRAscppyYJsOSrZ6I1lANynPagQCXzo7L4dikfuV6K8ChBSfjF3PODkB6AMlhY6qfxczHcJkaWN3PTw3a+m7QyiTPfppqUH6qHYibLW4zOOUdFsu5onxq4AADB/h9zbNdoWSBQHBW4wROeHCjfScmu9nrFncKeBUk5gkiUDXHdtG83RH2cm6p6QF9oHkO5+25rXxatEcbOTUKDBR8J/xrsnYhZPhgy1x+GDop2c26LW61ZMFuxQtoRQlhZkie2U41JEdpB6CnIW16IGELmQi8e4ZUpIEfICY2NHESASj446Ip7ruz+qzWaIKf/BHDHRtttHSCxwuIl8LsuIFbKHneMqoh2SqKfJix905N9thWnDHRJF85ZsVbOaBAfjOVQYgFMQL+x1cF7h9Ef0A3uyw9zBbExxjai3gRzR5OYD9KnnU+1ZDcqh0AbHOywXs6u8DoJMdEp+rjk13spqbpPPCv92xwAUEUHTBmktgGVrqd6RHLtttLuaU8XGcQ0eB2oRGT28ApfQPVkDymHQAY6aJBwyEAVHtse2YnG3YXPmNkr4kAIgCc024q3xGJzkNZdHbxam4ZP6HLYtvYyh+RuJLubZ4ta+eDVENSdmnNOY19glVvoZEXv+z0ipXM6ioj2gbhV9Rj0fjhNinoADYf7GWZKwnkVNEY4HAkaS/cYjUjr8gUEH44kDUt5DzwwwC2aTcnGzknVg4FWritfAUFCB0ieUn23VgNb9PkuGB1lHzmRaoheUs7ADhFbkoN8GQbqydcbHF2tlszQGjQTnjvqESnJ+0pqA5kKzRcQhGmx3L8RQJtH2kAkr99k2qIAVN2W5JdwNfmhrNYBtheVk/bTlMICiaAHBK8sC6NJeZkLlW54B6Kb7mlfEcnxnmufADi0wZO3BLsSjujkxUs4Cu55dz8cGlM/4qI0lSlMp+IfuiW8iEE5/SwYQU3NB1mql1wUDtlchdshPpc9Ge+W40r4WnKTTyuDBL8e3uzi32dZKy0ZooOrROc5v3AjvSIWwrIFJrcWVQlsomI/uTi4PC6LUFMskEkgeMhhzT6gu0XZFTKri4CLhw453FKNvhbzNkGqoKVT1jRChUKYNwjQoFIhEECTcmpzg+7T4SnWhYYrsxBpnl+pnmmtH1Q0KK3AKfoDY39Rm4m3B18IlVwtpuw4Hh3NM3u1wTR92YX8Tp8RgrolJ7uFDjhyl6OINtWyK+Uvsigl4mc021yVhEKm0+hChOcpN4RdQgD9Gc6tCvEM2XKd3gsH/gEyxzAqGoVdPuuykwRtg2neL3PPJ9dZBR+xKU2Kaog+bSoI5g8mcMYebwyBYRDNegJlr0kYcgz/kpuhTBuDn+p7HOIPiEYIBl/XO9QETJdsR1KOjDY0My+aJD4A+aH3gDAzeBVtMMKEDLUa6PT2i4FlyByToNQa/Q52OKSiq5IZJ9MFSBf0jYenUKBRjODp8d6QYGioCcWWCdRwDCU+ijkV7JLBPkf2riw1S1cwRco5DJHFGbbZSGbSy/igEENemKBMyXZd0d6HP8tmAQOG9q2yWhaWkiKGx1QdrjQyrPaRk+z6DYZ0fFlgcsW9MQCIBnoKSD6GnT7CvmV/JCnbZuVApxgZEuoaOByhjbR/HfaBlut9IRJFHUc9mHQEytrX9FODdIPWFBB69JCuM7K52Hy6PQTrrVmCqFs0TYWORdWBw6uFu1zkBcRlPNZDSiXUcw1iGqrBQG0KaAg91ot7iTp53oKobykbSiuJ7A6cKItGEUcg55QAGE2mfIB4DQG3c5CfmVZDonVECEIFZI8lOcpZIJqm7/SNtTqW1fQCfgj3THoCdWr5acFEpuCbmchv7Ism85OfW0QfXX6+cuw3Tc8WZR+6FaoC4xkvylOIpgI4HN81kKubsEDiPypcPJbfc7W9JCsnxMpRLJG20Ac5e0wfPWC47ifLchJRQzajPKFwWd5p4CUYMeNJXqOCqG6hekabQNRW8Vqh1/ILtbtMGrpBTmpSBI3q4BwYQR5GDlXYCropb3KANeNpJ+7KURyt7aBGASrHQZDRq/DdgbQLWBLtZqYBNLF/hAxYlYkxlp+Dqhykj7eRiGSp7QNhP1gtcMgmup1GGyNoFwvdnMugriD5KmWBcKXBbVn7KR/Svr3EIVInnEjJxarnGxCwV0LIwtaD0gvtRICK3jI1kGOtdWDnIwcQkSPUIjkAW0DP2ZjCzays0ZtbCNOt14niekAKl45rfhfMAlEO2TFjKzesYe/l/TtTgqRfFLbQJQCszqARpfuwbj3axVEDWfZ1a5WgIiQ16HE/flRYRRJDRRHcrGI+g2hDsNZZS/jbl+zk2mnjrQVID0AaQNuKJ/ahvUyk+9sCU3M7qKAmzglz1tHIcv5LWkgYqZWbA5cqWV2Mo/xkPr+hI0C4maBFd7pDUgFAS5KmbsdwEoRUGCR3CSaSSGSJtF1W1a2SxnNSQQUL3LbzYE6gnaqnFoBsgHBKURFg4LD9iKzDSRYK99vNjyKpP8m/bF4P4w5Im9qG4ptwWwExKgAowjLEx2O6+4BsM+wqhqVfkN0B2QDVEmAoxlmA7Zr/BcHFhQyQl4I0h+NSruhvO6u9GTb1R3wfVYLdlpxj+FeEslzcL1a6OQybUOR5GKGH4dtye6Kgous7V5xCj/X5tRE2ZvObVlUFjWqPqoFTr7YGrsMtvO2aJK/qGYiJ8iJgWLMi7fZqthlhTQr4QMCF1EIpVeUjITVwqizyNS3q4BqFgruBTZyeWDrA0kWd4vIqq7iIkM3SAV4AVHD2UxF/1wkwV1R2FZBZcNqhRcEYc2Zsbzp+++MYMSOxu8lKziSk8ZRSGWvtsGIIshWQVyRpb602SmwMiCvBNvzycke7tw+LdnL7+VFW4yKfoNJjMC92/YlTAWDKvXML8B+drD6IeoV6qSkskaj4rsXkQa3ge3Q6RWpRoDdZ/emJHIJeMn0shRxEDP4/AwKubysbTROlohRimww1FMJWvGKEQs4n71UviJgxwWthEcIMvhwmDKYjxeoAqRXVBMGTGd1SQ5scS5W93QEDLod9nYQpX/JBPBcnJBhW8OZDGYSfHpapcftosX2wEluUITzPeWGq4qQj+tFA/CWoQxEWOyhiIWkbbex2qIPzwz5AXavXswXSoYLgdSfga2MuD12AIPnX04VJFHFV8TCDqMLcrzEazlrpX9lgGKZuSUAxcpt3F/3pbDlgJiRvHILo6lOgnWCVRE17ooFvuEgBi0cBxXw2dxWPoQLg843vsnY6Ddc9azWpP60POVSix8TURtVqCw3p3xRUwnsOKEaxCctIUiWtRqDNgmvqEdthx1kttywgqVUwRJTChxKO2mVvIor6MGKcWr7Wa0W4BW2p4cttx9K6+RibURpTHzPe0rKbUXL12WdRAY/7BKrA8hLzKb6bV+nNdTQHLjiFRRAkaz0A8n7Vu5WFuFR+a1JRbxBVSA3yToJV4GTgcTWbYfBEoZikgUVzN7UiZCcG0waRKdM+GCvoyqQBV5XvH+sZb7l29ODqrSvhyNN0NGw8hkV+bQCrUtGgNlUBYLj+y/0OulW/ix8XBYMa1ulKoKqvEqKD1WvtrZdGPhif05EEaoSeVivo25WPEB80yybOaj7PPRwgSQmDrqYF2HC9Y39sjFColnViK47RnaTuR3gZGtw7UAoFfA8Sf7F9RnrdV3MAHnLkjFaRFUkEcWhWdZRLxJ1wOOT3SwOwMEdtNIVTCQVIc/Xq++8WF8Bf1JN229RbvfSBtQCLhqZAlqpW+0HVgju/sUp1am7xeaqewtVoUwRddZqCV+zQEaeXr1p4FQbxZO8xHjBAQorlJffCRKCzvhMoyqV72s7C8q5VwOMk66eAmLCg1a6ggKYIdr2IS8ZznYvvxdpCYKx+R5Vsezxu5ae7Got+A+DVr6CTljMj8JGOjtEqCn3TuUKUbK2l5XlcSDRU0Bw54JWvv350bLtFywdN9JN5d+reynQDqpiEbpjvKgWoIYelQtUJuT1BqmAV2emWr7XzQ2galctuF+0Eiei37hRTdUt5gcYwUEp3xdzy1i7gInsx5W0OgeQXykMpqqWF0XbsJcG9xeyYJvou2SwCgWhgMcIqjHA9YJKEV5vvzqs6H1UA3KSSAmssnqtQnYfbjLS4Hk6plkn8KgPNRAlZdeOpRqQmBLoLnM7ePnm48Chp4AAatOAI+eH8qFSgh7/b4fFGn52Dj06ZN6fVgP51KzsFA0+rgr1auANriFVtr8Yv6LKu8lfyYsbycyBezy2/5CKqfPdl1INSYaI/ktUG8XsvcJuOqXVQAwZ1Ci7Vav0gJo1kmtQWRFuU660J1/tJYYKQJdLU43JZtEEHBbLuT75ABLPzShgEUiXRGElpzViwF5GzNUMazvj4ZVkYB1JKnVtoBoUEFW/JRoQsIP3e5B3YUUBi4CTGMWKrBYaR5RlbeOEslsrjUyAggfKhxd6lj77+RvVyHwxKwMiv2DRN+imEhrc+mMIHBqQyAQSA4otoZoCUiIBXKZ9c9N0dmFqkB2dGGe7xG/GAwXEwQ6+Tp3v/DUR9VGNC+6Z+5NogBAsd8s/aOWut6AQp6irngAUc1+a0K2/gzE/PejJD/WpuFih1I3qBRLyZajwhEsECZgc0yW3uysVbeuikrv0BguREpSwcDIhqNsctHKZwRYX6Gk48RtkCX6mrnniQ8mDssmBG8MOg/oaQcA/rGiNJmwzYbDqIc/aoOzb/ZVYaMhP2a5nExaB2yDhWEZ1KdmE4PeILOj4vkKLOfFWS6duZBaizo2s5jURHQjb7UZhltXKCc3QaEcxcdQ8Rn0VKNsnMlP5NoZ7R+xc/SCq9L8s0cEjGFB6UMdQ4xB+NS3gRIYNhy1wd2Yyr74AZbLiiiEFKEiO+oFIWdAmoxerhiGqgUoJuHvE4HlguZwa9KRWmqAS+5f9Xn2gtPBDgiHjVuk2xF/hrsGLYaeoUoQi3EcI2Cjo/oZStbYuNgQO0k1E9O9eKh1sptnxVn7fiBdRGC3AvAHrJeLtywRywbm17GR2UxqJ6BIi+q7bE4WrG+BI9lrpRLi3ebblmjYm8F1lrDBmdfFAzlBsGseThWRwL/NRzGBPdqHhNbUmgVp+6+sa548gfPRtt68pCAobDJLoTeBtIhqqK5+/kiCiO4joj3YmLUzVsTbYV8A/KmOAsahLQDJTWQEsTd6NJu6w8wOv50ftVsr/J+We5rqEJNvuCuUeW9OHD68rD5jBJv3yGHr4UKmzkwx60OtSLhOUWoSmtmVcHB2k8t3RPJM7000qHiIZn6/bepUhU5XJMpzYjan+QJQPFRvS5q9f3U9Es4Ie1LpYlyVKrusHRiuh17m4aoDqbxC3ZUqb9yl9qEuFy1jFRhQWyQRmxPKWafdWASVf19hnFAH5uWLj9QQ9aHVxXxr0CmUWs/KQIO+Fc/qB5jmc0m+w6t1aS7m5tSxXyhQBV5265SdEpGNVstvoIpr3ieiCoAelLv6nhUrdNmCugOJl9WIYrKD3Nc/myUAmqFJv1w8YtSs4Wf6r0SkUhFbw7nDxM1bGF7KLS7Zp8ADB1MblNwjxYSs3cbL9lUK+rW+5NS5jiOhZC45gp/i1Yod2BN3xuoRLjiKidz1UvH8jot1E1BJ0R+sSXokqdK93XFK6PygO8RPrW21drCoiygk/boN7iEI/jyp1EGuu4E9d3BccEuYoxbufJKJvEtHPiOh/FIXDIWYvEW1TQoB1IfPy/x2VrgtH0mXpAAAAAElFTkSuQmCC;perimeterSpacing=10;" parent="4_tMPqCt2Fl0vMyQaccZ-23" vertex="1">
          <mxGeometry width="37.5" height="37.5" as="geometry" />
        </mxCell>
        <mxCell id="4_tMPqCt2Fl0vMyQaccZ-30" style="edgeStyle=orthogonalEdgeStyle;rounded=0;orthogonalLoop=1;jettySize=auto;html=1;exitX=1;exitY=0.5;exitDx=0;exitDy=0;entryX=0;entryY=0.5;entryDx=0;entryDy=0;" edge="1" parent="1" source="4_tMPqCt2Fl0vMyQaccZ-29" target="InsQ_l6GOQLopfFf3C0F-21">
          <mxGeometry relative="1" as="geometry" />
        </mxCell>
        <mxCell id="4_tMPqCt2Fl0vMyQaccZ-29" value="" style="shape=image;verticalLabelPosition=bottom;labelBackgroundColor=default;verticalAlign=top;aspect=fixed;imageAspect=0;image=data:image/png,iVBORw0KGgoAAAANSUhEUgAAAIAAAACACAYAAADDPmHLAAAACXBIWXMAAAsTAAALEwEAmpwYAAANSElEQVR4nO1daXAcRxUeAoRAqAICgSKBoiBUuAuqOALF8ZviSLjCEYrKD1JOvN0r2/KV/FpylK/t3rUkg5G1272yFSeWb603sa3IlkY+E1t27BQpHMuSHdvBdmLnhBhCmnqjFZ7pnd3VamfVc/RX9aq2dlqrmfdev6tf9xhGyJFIJN6VjGVvoZjPpph3EMRNitgJitlFgvm/KWKX4TN8Z13DvAPGwt/A36q+f41JIJHovpqi3M8JZhso4q9SzMVkiCD2CkV8PcH8Z/CbWhg+R0s8ez3F7CGC2YuTFTotpwyYvUgQf5BMa/+I6ufUkLAstuz9BPNFFLHXvRY8lQmx1wnmC5KzV16rBeEDgHmmmJ+qJLRUU6dov3+j6Fq+U2xce1BsyT8jtm4/Jp4wRyza2nvM+m7T2oPWGBgLf1PFPZxMxdhtqp8/skjcya+hmLWXFVI8J7JLCqJn8xHRv/+0MA++UBP17z8tejY9bf0G/FYFZfgL3ItqfkQKi+IrPkEQP+wmkPSsVWJ1h2nN7FqFbpYh+K1HOgZEeubKcm5haDHK3KCaL5HAknjuJorYcTdBZBcXRO/ACc8Eb8qKMDgiOpduK2cJRtMzMp9TzZ9Qg2D+eYL4eZn5rXNXWz68UYI3JdqSP2r9z1IlYOcI6rxZNZ9CCXp37kaC2IjM9OWJdZ6ae7MGa/DX+ze4uAP+PJnOPqmaX6ECBFluPp+ntor+J89MufBNW6DIyeMuNQN+sCXe8h7VfAsN3KJ98PcDB9QJ3xynA2cFSxbc3MEy1XwLBaCkKzO3/YFNSme+6WIJoHZQUn+Is5+q5l/gK3xykaft3kfFzj2nlAvdlGjH7pOibf4jJZlB+7T296nmY2BhlXcdxR0+pdG+WSP1bD7q5goeUs3HQKINdX6YYP6anZmdLb3KhWxWoZI6Aawd6AWk2gEzx87IpbO7xI49zysXsFmFwD21NHfJSvBAA+ZIeAFr7/KSLpR3VQvXnCA9ssKUXcEF3U9QA5KY/cIRTc/oFH27RpUL1pwg9e0eFekZztVEgnK3Nm7KhAxWJ0/AfL8pUefS7bIV6FbN10AA+vCsVqw6GzcgJYOovF5B9mw+Itrmu9X9ayOC2KXu27vfqZq/vkexgbNuho8rQb0K0Faa20+aktPZN1Xz1/codu+GUwFwdpZq/voexbZsT4Sf98QFHPVQCVi7av76HhTzQTvT8puPKA/ozDriB2ccwPtV89f3kNf8t/cdVy5Ic5K0re85pwVA7IRq/voeBPGX7EwLQvXPrFAVlNzABdX89T3GtmpdYdrAU/5Z9jVrpP6nzsou4E3V/PU9vMwA/FQHoEVSzV/fwytGjyuBn9JAqhVAK4ChMTUWwJ91AK4VoFYXoDqQM+skrQB1xgCqBWhqBZhaaAWIOLQCRBy6DhBx6DpAxKEVIOLQdYCIQweBEYdWgIhDK0DEoRUgRICjUghm6+o5rjVspWA6UQKeIbYxsAdPWcKX2ru0AvBJ8IBdDOSZQ9bM92D5VO7Mqdbp47dx1Jtl5OBtK6vH7LspgH1NvlKnj9/GUQ94AFvljKBBfghxaeuEqJwCTDQ28Ns46hEfjKBBK8ALWgG80PzCrlGLyn0vk9/GUW0BtALQSLoAj4LA8ZnUOu9KkNU6b3XZmei3cdQDHlDMXzaCBihieKkAa9YOWUwG5navHSorCL+No15kAZitMYIGqGBZb+PySAGCSrR+4b8I70cwggioYEERo54jX6KqAASxV2DmB1b45SA/aLXrYVMAo0Z+hA5aAZzQClCFIapncEFbAG+hLUDELYD1vl7bA8tHqMoHRGwxR1xnYe/ek2L3oTNi72G1tPvQGbF93ynXe9xinqh4QAS8VcShAIhdNsIOKGo4HnpWx3X263IPQc+O51yZ6wfh7x1XgqHTrvfY03es4hExcIq4pCAvGWEHxfyM/aGTscynKh0StXHrs67M3RMABdj4+N8qHhKVxCs/LSnIKSPsoJg97dD6ptzX7deLr3D///Vy1bfe/Sd9oQS7h06XdQFQHax0TBycHCopyJARdhDMNzkrXdnfVToosovtUh7JFyZJq7K7Kh4USeL8904F4OuNsINglpYe+k+O64g12693LHlMuSALk6QV8N5h57POtD8rvEhCqv4RI+wgKDfNaQHYOvt1inPfsl9vmfOwKAyqF2ahVhocFS1znG8OSaHMNyodi08x/6MRdlCc/apkFs8JQ7yj0nHx6zYfUS/QXbUR3LP0nBftx8UnEomrICtwKEgs9yUj7AAmyC+Dooh9xT4GfKH9OmvtVS7QQo3EWrZXXNJNx/jXpNn/MiiFEQVQxB6rdIy6/LLI9OwukR8YVi7UwgQJ7hXuudJLJCnmc6UMoceICihmdztnB3+q2kujIKJWLdjCBGlVdlBO/863T2t/t/0ZCWaHpADwLiMqWIwyNxDM3nZYgXj2i/YxBPEHHcHgvNWBsAL5/mErcK2U6SSbMl+Wrv93aVPHx4wogSLeJ/nAZEmZFLHX7WNyf+5TLuBCFeJtT8jCf1Uud1PMqfTs242oIRXL/Vpm1MLpD3/IPoZgvsDhR5tyYn3+GeVCLpShDfmj1j1Wemmk2xtRKeK/NKIGy88j/g8pUk7YxyRnr7yWIHbSPqbtvkctM+s7079zWLTdt6ak9k9ndb+3SvHnrBwfRAYE83lyrtwSz15vH5OKsdskcynaF+VFYdB9mVgJDY6I9oV5Ke+H7Ib/2P4s4Ofl1VCofBpRBcxwKARJ5jArjyOYLZeZm01v84nwR617ke+PYtYqPwfFbKU05oXIv14e6uOSG3g7hfl37YxL3MmvgZUyVyVQaQkGR1yFD2ktNHs4lD2W+4Gc+RDE40bUAf6PYH5E8p3HF01r/4B9HL07d6PcKwC0YmFeSUyQ3znsavbB76dmrvq4/d7TM/gHrXjAqeiHoOw95Qz3I0gs+z15drgdilDcbOJ0GRAY3vvolGYHG/JHSwO+MZN+jqDOm+33DOsccmkb8n4a59+eUiYHbpm4TIAEDHazBJB+8WV9It9/vHGzvn/YyvNLUr3izJeF7x7oltY8NIppIUXsQMlMQewO90oiP+jCWKsKB6VYL6uG+YFhsSozWFrhs/l82ewDkjH+BxfL9qTcCKtRBI11fFZuCrW6iGPsRzKTxjpq2TI3gQDBYgxr6R1bSp5MP8Hg2JIurOotbXYu7MjRvhzwjVmq7E/kDmhY31gSz92kBV4BVrSM+JuyEkD7lNt4WGWjmI+WFxBYhS7RsaRgLShBjyE0a0K38RZzxCL4DN/BNRgDY+VmDjeTL+f5zpnvFD7F7F8Q62jhTwBg9i3zL6WHBLE5buMhl6aYPVRSYm0EIev8vgfkCt94wAc+vyTdw+wtKH1r4deAov98q9TfsnVyimivsxdLrY5OGy+IIH4eVvXkhR1nqidF+2MK8x+58VVjgqCI/1beKVR0CcMpzL5feZ0hd2txa/qlyQueXYROHnAzler14LbkPL/oJi4n49lfaYHXAYu5LjPacgmY55L3rPxotRY06L+HriNoy4befFAgK9hE7DIQfIbvKGY7YQxUJ6GB097D5wao7RPEOl0i/bGagPb53gB20MgdNFdMM7tEMLu/nGluBNquuBrnNrcrM/+AvONJo05YaR9ii+Xg0OYWIACkjeysTUInD+KpcsEmxCzQw6Dz/AYCfH/J2kHpDByCjAFa0OvptE0kElcVu3fnlrNAtiDxsLyIpdEggG9OIX6PFZlXD+YuQHRu9Rgidgf49tT07GfAZSQS3VdbFchZHdfBd3AN6g0wtrhpYwLZBNT/c9OqxQsaDUCxY2iG3DU0RTQK/zvy6/l+AKRoFPPbKeZ5yLsbJXQCFUnEeyC1i2wbl99RTM3uGqsB1P/CCmKliGwN7NurlnJq+Azgl2WBdi3ggiWYWD6fi5aZYwSf4Tu4Jo/Xvj3gkAUqLnRUJCqNV33/GnVCK0DEoRUg4tAKEHFoBYg4tAJEHFoBIg6tACFGGnV+B5Zn4fDJCS4MeVMSRvx8cXUwmYxlb1HNh8ghPb3zCxTzrQoWgESZNYKC26YQjQbAagP36I1k1Ft6mcb4D7XQG32qSANX+2jdloC95baTScOjDmG3NvH1aSaGd2fEP09WrvF7SW+MZsTxwYxYm2KlijCmoLdroXsIgtlv5JmfbuLiyLbMlAldlKHDj2VFqkkrQcMAzRey8IHhz+5QL3xRpL8PZCyFlN1Bue1sGiESvhhXAjMj0jO0EpRF8f04TRTzffL5f5q4KPJkHxwb47bbONAYO96FH9aC5hPNJg4Bz4wwALRZC59PJqU8FApLUDT72szjyfCAYSPoIIjttz/UuoWt4vyO+eKNfc2a9l3hwbkd88TaBa1OK4DYXiPokPfRwYNq4Te78uBc33y5qPSqEXRoBWiOuAJILgDMnLYCza7C7w6lC0A8roNAHt0g0EoDq2yt1sRd08DQnDNgFYK0EohIFoLGYe3DxwyDX5uS49wCRgTz1whme4BHoZn5GhoaGhoaGr7F/wDPg20QPNY+6AAAAABJRU5ErkJggg==;" vertex="1" parent="1">
          <mxGeometry x="65.11" y="317.88" width="62.75" height="62.75" as="geometry" />
        </mxCell>
        <mxCell id="4_tMPqCt2Fl0vMyQaccZ-36" style="edgeStyle=orthogonalEdgeStyle;rounded=0;orthogonalLoop=1;jettySize=auto;html=1;exitX=1;exitY=0.5;exitDx=0;exitDy=0;entryX=0;entryY=0.5;entryDx=0;entryDy=0;" edge="1" parent="1" source="4_tMPqCt2Fl0vMyQaccZ-32" target="InsQ_l6GOQLopfFf3C0F-19">
          <mxGeometry relative="1" as="geometry" />
        </mxCell>
        <mxCell id="4_tMPqCt2Fl0vMyQaccZ-32" value="" style="ellipse;html=1;verticalLabelPosition=bottom;labelBackgroundColor=#ffffff;verticalAlign=top;fillColor=#ffffff" vertex="1" parent="1">
          <mxGeometry x="723" y="199" width="10" height="10" as="geometry" />
        </mxCell>
        <mxCell id="4_tMPqCt2Fl0vMyQaccZ-38" value="Permutation" style="shape=image;verticalLabelPosition=bottom;labelBackgroundColor=default;verticalAlign=top;aspect=fixed;imageAspect=0;image=data:image/png,iVBORw0KGgoAAAANSUhEUgAAAKAAAACgCAYAAACLz2ctAAAACXBIWXMAAAsTAAALEwEAmpwYAAAZ5ElEQVR4nO2deXBT173H1TbtvPbNm76+N2+Z6SRpkzZtQkoSEtJ0GZLXEAIBwhoCBAj7vgQwDhiDwdgYDN7wKlm2ZEm2ZFmyr2ztq2XZlmVLXsDG7BhjMPueJqGB35tzgyjYYOtK9+pI8v3OfGeSP5Cuzvn4nHN/53d+h8NhxYoVK1asWLEKbW3dJ3k+ObtMlMmvOpUn1N3hS0zfFpSYv+WKDV9lFah79ucpiYQ0weu4n5NVhCmzsHKDQGa5bao5DK7m7gFd4zwBEkXNN3kCXSbu52YV5soVGqZLy2u/crq7BgXvSa7Quv9RILVsw/07WIWZCqX6ZwVSy8nahpN+gfeoGzxnoKyy4U6RzDYa9+9iFeKKi4v7IVekJ0z2w/cDBa+vaxtPgbjMfrKgoOa/cP9OViGonCLdNpXe/R3d4PW1obr9vqDUKsf9e1mFiDIFuvfEipqrDR7/1nn+ukLnucuTmFfh/v2sMClNUPHvhTJrW00A6zy783hAEDrdXSAl6q7kl5iHsyAMIfGLjTI0FVIBpbDYBKs37Ydx01fDH96ZCs+9Mhqeffl90i+NGA/vfrQI5i3bAak5CqiuO0YN5PrjIJTbmgUC27/gbhtWDCpXqFum1Li+pQJe4n4xvPXuzIew+eLfvjEeVm5MBmN1ByUQNabWe/kSYwoLQYQpo8j0hljhuEwlnqczt8EHk5ZTAq+v0UjJFxsoT81KdePXPKF2Cu52YxWg9vJr/40vNTfY6o5SAsBaewT+NHpuQPB5/eJr40BUavUvbKNwdAur6n/JghCG4kkM+Vpzq1/xvDXRKbTA5/WocQvIgLQ/z2Ku6bwvlFnUAPAD3G3KygdxxabP5Srn14G8nb79f7NpBRBZa2r1+3lczd2g0rnvciWGtSwEISquVPtiUWn12bqm0wF1NPLrf/mEdgDVhuaAn6vBcwZKVfXX+SXGt3C3N6sHiouzPcMvMdVYa6mt8wbynMXbaIXvnfc/83sKdj0l/lgoszSnpNT/lAUBo/jFxt2VBs89ujrWa0LbBL9/cyIt8P1q2BjgCbW0Pp/rgXXWQ/cFJZZsFsIgK0doHicl6m7TOar0dZHUAq++MyUg+F56YwKk5yoZe0bXAyvUrm94YuMMFkSGJRSafymU2Y7UugJPk/LFxup2mL9iJ/z6D2Mogff8sA9g5sIYUOndQXlOV3M31Dd1QUl5bS9XWPsiCyJD22dMpEn5Yr3lIMQlFcLET9fBsLcnPxG6V0ZOgvEz1kJsQj5ojC1Bf0bXA1sdR6CgxGiTy+U/YkGkQTyxLkal9/wDV4c+ySZ7B6h0TSBV1pDrRfT/uJ/J1cdVxpbv+FJrDAuhn8oX6t9G22fBTpOKJDd4zqBsm9vcYtNfWRB91B65/Offp0mdwN6BkWK78wQIS62Hi4vVv2BBHGi6lejztZaDWNZ5Q8F666H7fIlezELYDzzDIqXa9zQp1t0BtUGFtulbnswyb8iDmCvSvyYus59DIQQWqu6gtgFKTUNrbF6R5qUhB6Jc3v4TFCqgmibFupv2NrDUHgGBzFpjs9me4QwF8SWmHK2ljfbtM9bdAbVBlbHlHk9iSOJEqgqlxqnogDYLSuj+sTQ8OESfLzJ/wIkUSSSW54tKbV10pEmx7g5KGzhcJwH1WYFcG76H6NFWkKDUarKy67yw/cMx2NrvF0otZZxwE1+kj6s0ePyqMlDfdBosNZ0oZgX2emrHG1l3M9IGFVr3Xa5Iv5oT6uKKDWNKVc5bVNKkUMbI1l08mDRzPbzxhExkdMTxbxOWwrL1e8gTZv5WqhpKLle7IDlTBus2p8GCVfEwc8EWWLAynjwqmrBfBGK5jXI7esM22fnqlzmhpj1c+c+L5NVH0EkuX39Qmaoeps3d9NgBb1888t1ZsCe9mNYM40iwueYwbIzN9PkMM8reQVCWqxspfY+t9ihkC9SOpUu5P+aEgmJ256+WKGoohVXidhfAC8M/DCjZE6VGoeOTuDsetxs8Z2DXviJypvCnHZ8fNhqWrksCB8W99wP8ym9iEgo/xArfum3Zup37JZQePD65iLazFmMmr4B699B+u16yNpGWthw9aRlQSQBB4K/cnA4bd+TtwwLfys0ZTRPnRqM3JZ8fGuXNoTR1ugBE3pNWgh0CXE7OlNHalghmKt9fKLXAhDnRsHF7jiCo8K3bnl0+Yc4mmLl8B6UHzsgrp7XBkNECGzcIuPzuR4tobUt09IDKKGi0dwDi4ON50bApLi82KPBtThJ88vG8L8kv/nztbkoNhipH0Q7gwhjsIODySyP8W/cNZPQGTeV4KOIAedrCrffiEkWvMl7Cdu6qhDveL526IAbqKbzOo7MVgb589DWahnCDgMujxi2ktS1RHRsqLyMVOvdDAJGXRu0/ySiAUXF5ux/9QuQiuY1So0Vty6KtwcZ/smZIxwWTM+hdA66K2kfp+xPSSh5jAb0TxCQUjGMMwM/XJl3tC+Dc1QmU357WfplCvv4H0lhTPouCanabDxavSaDnj3nGWqhr9D2iUGVsgSnztzzGAvKK6LRWRuCL3SMchghHX/LZynhI4ylARlSDqMwImQUqsDioxeQKJUa/6u+98/6cIT3tup5gFAf0N7qAXjy+2JxOKZxF6NyQkCGD1DwCUvII2JokgBmLt5FsTF8Uew+VS6EdwA1xOakIwAy+Erp6rsLZ3huPuePYOajQNgLVU2yy8lrYsPUAGdP7/Vsf92sg1LDvT1xKTg+CEhM43ewOiOsJ7Wh1dEJ0XDb8Zcw8n8B7891PYc2mFLIQJ5XDTeIyO1RoPUDoWx6zQuNBMUESwpgE/njaAVy5JaM+W0D0A6+vnZ5jQARQEQBt9aBSZmpTC/nfuEeXcLTG2AIHeBWwOS4XVkXtJ/eD0T5wVGwmpOUqKb3p/rMqlxPkla5+4PX1+u25sGFHHv31ajbH87q6eq4NCiBy9/nroLc2g8k++N1qrLtDug3QdFtSUT8oeF6Xqhpgw44cHe0AihWWW77A96hPnLkC5doGCFYtF9bdtLUBSomTKB0+g/eoE9JlnbQDqLV4/k4VQK9bOs5AuQatD9n1W6j/kdQ2noJiRQ0oNc1+wYecylWdoR1Ac23b1/4C6HW18zC5tsPdyKy7n3YeBGSqBr/B8/oAX90TkgB614c6azMbwwuhPwS1qRWK/ZxunwhgAQMAmhz0AOj1kZO9QOgaybp2uDtgKJ8JFsntoDL4P90+yRkFVecYALCVVgC9dh88BZVBLOTIuttbzBIU6iZawXtkBKQfQLOjze+XEF9srjlIpvewgHQz2gZKTRPICCcj4HmdWaA+TzuApppWRgFE7uq5ApWmJnDQcFM56+7H2kBvOwTF5bWMgvdwBCzU0A+g0c48gF4f7Owh14ds2KY74D8kdBOnRFkDFTrmwXsIIF/bSzuApiAC6HVd01HQsGEb8Ac8lKaGts+UDK3zBp6CNfQDaK5p/SrYAD4atgmFCgvoTAs6VoCOP362ZBtMnxsNk2avJ7Oy0V7r7lQJKKsasD9nhdYNUsL37bOwANBkxwOg1ye6LoNK3wjBrjGDlgFZ+SoYO3Ulef2Cr2eXt+zMo3xxtStAG6rbg7bOGxhABqZgo70FK4Beuw+ehipj4Peu+Vq1YfTHy/xO8kRXOmTyCMafs9Z1kgwkl+vc2OEjARRoLkQsgF5b69rJ+jFMdaqi0gkvj+yfn+iP0UF8pkbnUpUTyqoGT5MKprMKtfQDaLI338EN3dPCNnRX1EcLeHTBIF1nLdDUjYCm8xnVphaQVjAbz/N/CtZcpB1AYwgC6HXniV6oIMM29GzrcYVa2uDzetm6JNrSpEQoK1lH7/YZvQBq6QdQb/eELIBe17mPkRvrgXYyqiBFN4BT50QFnCYlQWlS2tAF7yGAhepLQxLAh9nY1a1gdnT63dmFxSbaAUSl0gJLk3JiB8tXZxVqmACw+TZuuKhmY6OwDSp46U+n/23CEtrgQwer0KF86uu8VpAo6EuTCpazBUwAWB1eAHrddhida2ii3PnoYNSIUZ/SUm0gX6QPiTQpImhTsPYyZ6iPgH1tq+8gN+SpLvjRLgfVIppeo1GUygk0p5vZNKnwBrC6mfKhpFDz6bPXQG32QDXF2tNlKicsXLULhv9p6uDT7YjxMGP+Zsgv0lH6DqWmEUoZTpMKlrMEOgYAtIU/gF4fOXnBr7ANOhSPRrT0XCXExHNh/ZZ0sswI2nbbd0AGsnIHpfIWruZu0NnaQVQWfuu8gZxdyASAVk/EAOh1U9sp0JgDD9v4myYlUtihXIsfGPpHQO0V2gE02Jpv4gaGyWxsc43/YRtqo2gXukQayqoasYPC2AjIBIB6a+QCiHwShW0MTYweoifTpCrqsANCMA2gUHuVdgB1Vk9EA+j1wSNnybANndnYqI42mm5xg0GwAIaPa5uOgoFi2KavUZLE9/u2/atJRbKzhTpGRsAbuKHAsa1XaWyiXM0BvWBwxQaQhtH2GRHqAGqHIIBe13uOwvrtmZCSqwQZUd8v0xllaaMqUrlFOtiwPQcS02XYISAwOkeou8YAgO7ruEHA6bbObljwxe6HpWjRTQHTF8f2KVMbTVYNxQ0Agdm5Aj0LIBMQtrR3wazlO/rVRfY6YYiPfIQXQCEDAGosTUN6BPRaX+0hq8H3hW9tbBbljipVNcCejFLYmsCHNK4qcgAs0l+nHUCtxX0tGB3c03UZem3NcElpg0sKK/RWt0DPqYvYwXvUiRnix+CbvngbpbJm8qpGWLRmN/y2z0UzoyctBxkReHk03M4VGegHUMMwgAi8K9lyuD1zE9yZ8sXjnr4Bbmw5ABfUdXD2/HXsALYfPQtTFvxz7bcrrcTnzskRaOHNUU+/UnXmwtgIGAEZAbDpKmPwHTsHN1fv7g/eE3xzZSI5QuKGMDlL6r2WABQa345DpnMJ+N2IiQNm07wwfCw5NeOGKBDnCHU3wgfA89fhRnSaT/A99NT1cDVTCj3dV7ABaG9oJwHctJPrU6cUlljg5ZGTfMojTMutCG8Ai/QMAGhmBsCLKjs1+B4bDXfD+UOnsQWp566Kh2yBbtAOKde44U+jfbu/49mX34f4/RLsEAXi3CLDTdoBVDME4I11yX4DiHxrwTY433wcC4TbkwuhTD14VsuKjfsoZVInZ5ZhhygQ5zECoLHxCt0deO5wd0DweX17Tgz0ug4HHUCBVD9oZ4gVDvjN6x9RArBAYg5zAI30A6gxNV6muwMv6Jy0AEhCOG8rnOs4E1QA5ZWDFwJasDqREnyvvD0ZO0AhCqCLdgAvSQ20AehdEwYzZqgyDjz9KrUeGPbHyZQAnDF/C3aAAnWuyHArLAC8zKugFUDkazvyggag2jhw+GVfFvUb4vdnKwPqfFSyI6tADTGJfEhMLcGSec0IgFWmpkt0d+CVrFLaAUS+WGEPCoBVpoEBXL6B2svHqLELAur4HXuLYOR7sx/7TDQCZ/CCu82XV2S4TTuAakvTRdpHQEEVIwDenv0lnDtylvkRcBAAp87Z5DN8z70yGpIz5X51ONramzx741M/+7U/T4NSH266DG0AzfQDiPZ6mQAQ+Xo8j3EANYMAOHbqasbXfjKiAd4bP3gZke1JgqAByBUxAGCVuZF2AC8YXYwBiNxb3451BJw0wKj0qEe+NxtkftT6Q+u9cZ+s9ek75q3YGUQAjQyMgKamC3R34LmjPYwCeH1rFrMAWgY+67H0i72DgvHan6eR23T+dPSy9ck+j7BT50QHDcC8IuOdsAAQ+eaSnYxCeL7uIDYAuSID/GqAwuZ//NscEMhsfnVyrkAHv3p1jM8Azl68LXgjIBMAVhkbGQHwWpKAUQCvJfIZA1AzCIDIa75M61fc6IXhH8LnK+OhrMr/IkRjp/m+vkReHZ0aPADFJgYANDX2MtGJKMePSQBvfxIFPacuMAKg1gcAkVF2y9zlO2HWoljYEJsF4rKagDr4AK8q6PHFEADQdZ6JTuw5ewVuz97MKISXFBaGAMRTv2/W4lhK8P3+rYmg9DFnsa9RZVaUHLErRQLC0mofATR+FTYAIl/dL2YUQJRNzQiA1uADWKFr9jmv0OvPlmyn/D0SZS3571CCrPdznh82mjxKMNi/5YlN9ANYaWAOwF5nB7PT8MxNcLbnGu3PrbMFH0BukZESfAganthI6TvQQSmUFPG0z9y2e+CYIk9iZgTAc0wBiIxCJkxC2NvQEREAxu+XUAIQVXil8vlxe4SDvl2P+mjRIACawg9AFDRmdB1Yoqf9mfW24MJH6FtgczzXZ/hefWcKlFCoxoVeVJ73IbSDRtXyAa6L4ElMf6cdQJXB1cMkgOQouD2XMQBR4gP9I2DwAdyxt8i3qffVMZQyq9Gb+ctv+X412UBv8owAWGl0nWUaQJRQemdmNCMAongj7QBWBx/AXKFuUDhQ3PFLHw9LeT1x5npKUztKgHjaZ+WLmRgB9cwDiHypmN4kVSa35dCFOMEGkNC3wDvvz30qGL/+w4dkLiCVz0vNKacc1hno83gSMwMAGl3dwQCQPKYZlUo/gDGZtD+rAROAB3hV8NKICf3A+OuY+eTBd6qf98HkFZQARLswAwJYbPqafgANzuAAiKbiI2fJ0260ArgrP2IAJB6cM16yNonMuEHbev6epEOfQ/UelPVbM4MPYJm69mSwAEQ+39gJtz/dRN9LSK4iogAkaDLaq6YCHwrRoCD1QJ+ZI9TRvxUnVdmbgwngw33iaRtoAfCCpo725zPa27ADRAToj6avpRhXHLx2TVYhA1XyeWKtItgAkhDqnGRCQcAJCSd7aX82U81B7AARAfpNCvfhvTh8LAik1kE/MyW3opN2AJPTxVO6eq4CFgitnidXzcIYgvkewPAfAX/35sDFkh712s3pPn3mnqwyLu0AxsXZnjE7Wu/jABD5XMtxuLl2L3UAZ0XD+fYuFkD9k2FBGdm+wPfhlJUD7n54XVxeB/F7xb/jMKGCYl3Q3oSf5J6eq3CZW07WC/Rp6p2+ES7qGxh7nkiYgkdPWj4ofCju6OuZlVRuBf37wF7Fp0mnootccEJIjoYdZ8jybAPtmtxauJ3xOoJmxyHsABEBGu2YDJZ44Ot+crnWA/Gp4gwOkyoo1jFWqJLyiHiyFy5WOuBqeglcj80mdzuupojhorqWHC2Z/n5zbfiPgOXaZvhgysp+4KFjA0vWJZGl5Xz9rBQucTcuLu6HjAKYmF0yvLr+EHb4QsGRACDxoH5h1LYc+HjWBpgw4wtY/WUa5WMDKDa4I1myhBMM7cstzzp8/Bx2AHA7EqZgggYrtW6ITy2xc4KpA/mE+cSZy9ghwGlLLQsgoW+G3emyUxwcyi6sUgzlkXCoA6jUuiEpU9HGwakckXaFvaHjHm4YcNha144dAgKThXL7/eQcRSonFMTlVv5Moa5rOsrQ+dtQ9VAEUKlxQ2aB+iy3qPI5TqhJILG9rjY1Xu5i4ARaKNo2xADMl5i+SeETMzmhrmK5dWm189C3uAFhR8AWWsArktvvpfOIHE64SaaqlrV2nMG2f8y0q+sjewQsVbngAF/dlpKS8lNOuCo/v/4/lJq6tuNdlyIQwA7skBAMuELrQRfwXEnJrXqNEykSl1nG6O2e2+iGIdzg0GW78zB2WAiazS+23M3gqdZwIlXFStsOp+fodxExAjojZwQUKxz3M/hqOWcoSC6X/0heabeFexDb3hD+I6C8shEOFGiOZ2aa/pMz1FSscLxA6J1dp3vw3XoZiGvCGsBmdLP57fQi7V85Q10ihW2+rf7gN2EHoCs8ASwosfwjtbAyCne/h5xKCGu+++DJsAnb2F2d2GEiKLi4vO5+Gq9SBwA/wN3XIas9JtPPybDN6eDd+eavHa4j2KEifLBC3QQZfPWpLIH6f3H3b9hIrDSNRNt6Z86F7rZebWNoA1ihI9d5d9IKNONw92fYSqqsjqlzd4Zk2KY2hEdAgcx2LyWP2Iu7/yImbCNT1ahD4UDUY1Nw41HsoBF9LCWckFGgrkHHaHH3W8RJWqF/FoVtTp0NjbBNbVPoAKjQeCCzQNubla/6De5+iniJ5caP0bYebgDr3EdDJk0qjaeahbtfhpxKCHtOU+sJbGGbeswjoKjMcT+TX8XH3Q9DWm63+2dKbX3dEQaKDw0OIJ6XEHnl92lSIpHoX3G3P6sHKpSZRwQ7bFPnPhb0Q+R5RYarOUL1m2zHh6iKymzL7Q0dd4MyAnqCB2CB1Ho3S6hfgbt9WVHIxm47zGw2djAAFCsc97MLNeVsx4ehVCrn/xB612GmDtA3NB9ndPssR2g4jjLKcbcjqwAlKrGNZSIb28kIgM2QJzLeyhKqR7EdH2GSlFfHNzQf+y5UARTIqr/L4qvjcLcTKwbF5bp/TGZjnzgfMlOwtKIeMgs1JgBgtrQZq9CRnGh4RW/1nA/kEL3TE1ggWkFWGdCcyZWbf4m7PVhhUrHSvrim4bBfh+h1NjeZ8uQPfPxi89fZ+YaJbMezIlWmcQhaO7oohW2Ss6SQI9RTAk9YWn0vjavezzY7q37KUTt+UWlsbPclbNPUdgKmLYyBJRv3+TQKSlUNqKiPMy5O/hO26VkNqDKd4z2To+3608I2zYdOw6Iv9sCEOZtIR+3kkgW6n1ZDL7tQ25uZqXmJbXZWlCRUWOOqTK67bZ3dgEqL1HuOQraAgE+WxD6Ez+sF6/ZAOq+STBRA4JUQTjTi3cwQ6mawzc4qIG3axY+Zvy7p2sS50f3A6+vJn2+G5ZtSu7YkCiazzc6KVsUkC17fEMflr9qc1rZw/d6L89Yk3vp8ze4bizYkn1+9JaM+aid3T9w+0X+zzc6KFStWrFix4oS2/h+fZD7hDDRoBgAAAABJRU5ErkJggg==;fontSize=14;strokeWidth=14;perimeterSpacing=10;" vertex="1" parent="1">
          <mxGeometry x="334.16" y="49" width="61" height="61" as="geometry" />
        </mxCell>
      </root>
    </mxGraphModel>
  </diagram>
</mxfile>
